<mxfile host="Electron" agent="Mozilla/5.0 (Macintosh; Intel Mac OS X 10_15_7) AppleWebKit/537.36 (KHTML, like Gecko) draw.io/26.2.2 Chrome/134.0.6998.178 Electron/35.1.2 Safari/537.36" version="26.2.2">
  <diagram id="WI9T0HZ2pTsCkuznbFz-" name="Page-1">
    <mxGraphModel dx="1381" dy="533" grid="1" gridSize="10" guides="1" tooltips="1" connect="1" arrows="1" fold="1" page="1" pageScale="1" pageWidth="827" pageHeight="1169" math="0" shadow="0">
      <root>
        <mxCell id="0" />
        <mxCell id="1" parent="0" />
        <mxCell id="yIlqXNv4PA9Dnh1hxRCn-52" value="" style="rounded=0;whiteSpace=wrap;html=1;fillColor=#f5f5f5;strokeColor=none;fontColor=#333333;" parent="1" vertex="1">
          <mxGeometry x="-140" y="300" width="740" height="330" as="geometry" />
        </mxCell>
        <mxCell id="PwxTCh5Mb6KXJ-CmKBn5-4" value="Establecimiento&lt;div&gt;de la conexión SSH&lt;/div&gt;&lt;div&gt;a la VM sin&amp;nbsp;&lt;/div&gt;&lt;div&gt;usar clave pública.&lt;/div&gt;&lt;div&gt;VM con extensión&amp;nbsp;&lt;/div&gt;&lt;div&gt;&#39;AADSSHLoginForLinux&#39;&lt;/div&gt;" style="image;sketch=0;aspect=fixed;html=1;points=[];align=center;fontSize=12;image=img/lib/mscae/VM_Linux.svg;fontColor=#000000;labelBackgroundColor=none;" vertex="1" parent="1">
          <mxGeometry x="500" y="380.88" width="50" height="46" as="geometry" />
        </mxCell>
        <mxCell id="PwxTCh5Mb6KXJ-CmKBn5-8" value="Azure verifica&lt;div&gt;que el usuario&amp;nbsp;&lt;/div&gt;&lt;div&gt;tiene el rol&lt;/div&gt;&lt;div&gt;&#39;Virtual Machine&lt;/div&gt;&lt;div&gt;User Login&#39;&lt;/div&gt;" style="image;sketch=0;aspect=fixed;html=1;points=[];align=center;fontSize=12;image=img/lib/mscae/Key_Vaults.svg;fontColor=#000000;labelBackgroundColor=none;" vertex="1" parent="1">
          <mxGeometry x="366" y="378.88" width="48" height="50" as="geometry" />
        </mxCell>
        <UserObject label="" tags="Fondo" id="PwxTCh5Mb6KXJ-CmKBn5-10">
          <mxCell style="vsdxID=37;fillColor=none;gradientColor=#c6c6c6;image;aspect=fixed;image=data:image/png,iVBORw0KGgoAAAANSUhEUgAABn4AAANuCAYAAAA4qHfNAAAAAXNSR0IArs4c6QAAAARnQU1BAACxjwv8YQUAAAAJcEhZcwAADsMAAA7DAcdvqGQAAJ51SURBVHhe7N0HnCRpXT/+WwQko2QQJEgWyUEk/EFEQFSCnKhI1kNXl50OM3trwBHlJyKSBLNgABQUAwqSQUSyCEpGgiAZ7uA4cvp/vnfPYtP07U5PV810z7zfr9fn1Xu70/U8VV3dc1OfqaqTAAAAAAAAAAAAAAAAAAAAAAAAAAAAAAAAAAAAAAAAAAAAAAAAAAAAAAAAAAAAAAAAAAAAAAAAAAAAAAAAAAAAAAAAAAAAAAAAAAAAAAAAAAAAAAAAAAAAAAAAAAAAAAAAAAAAAAAAAAAAAAAAAAAAAAAAAAAAAAAAAAAAAAAAAAAAAAAAAAAAAAAAAAAAAAAAAAAAAAAAAAAAAAAAAAAAAAAAAAAAAAAAAAAAAAAAAAAAAAAAAAAAAAAAAAAAAAAAAAAAAAAAAAAAAAAAAAAAAAAAAAAAAAAAAAAAAAAAAAAAAAAAAAAAAAAAAAAAAAAAAAAAAAAAAAAAAAAAAAAAAAAAAAAAAAAAAAAAAAAAAAAAAAAAAAAAAAAAAAAAAAAAAAAAAAAAAAAAAAAAAAAAAAAAAAAAAAAAAAAAAAAAAAAAAAAAAAAAAAAAAAAAAAAAAAAAAAAAAAAAAAAAAAAAAAAAAAAAAAAAAAAAAAAAAAAAAAAAAAAAAAAAAAAAAAAAAAAAAAAAAAAAAAAAAAAAAAAAAAAAAAAAAAAAAAAAAAAAAAAAAAAAAAAAAAAAAAAAAAAAAAAAAAAAAAAAAAAAAAAAAAAAAAAAAAAAAAAAAAAAAAAAAAAAAAAAAAAAAAAAAAAAAAAAAAAAAAAAAAAAAAAAAAAAAAAAAAAAAAAAAAAAAAAAAAAAAAAAAAAAAAAAAAAAAAAAAAAAAAAAAAAAAAAAAAAAAAAAAAAAAAAAAAAAAAAAAAAAAAAAAAAAAAAAAAAAAAAAAAAAAAAAAAAAAAAAAAAAAAAAAAAAAAAAAAAAAAAAAAAAAAAAAAAAAAAAAAAAAAAAAAAAAAAAAAAAAAAAAAAAAAAAAAAAAAAAAAAAAAAAAAAAAAAAAAAAAAAAAAAAAAAAAAAAAAAAAAAAAAAAAAAAAAAAAAAAAAAAAAAAAAAAAAAAAAAAAAAAAAAAAAAAAAAAAAAAAAAAAAAAAAAAAAAAAAAAAAAAAAAAAAAAAAAAAAAAAAAAAAAAAAAAAAAAAAAAAAAAAAAAAAAAAAAAAAAAAAAAAAAAAAAAAAAAAAAAAAAAAAAAAAAAAAAAAAAAAAAAAAAAAAAAAAAAAAAAAAAAAAAAAAAAAAAAAAAAAAAAAAAAAAAAAAAAAAAAAAAAAAAAAAAAAAAAAAAAAAAAAAAAAAAAAAAAAAAAAAAAAAAAAAAAAAAAAAAAAAAAAAAAAAAAAAAAAAAAAAAAAAAAAAAAAAAAAAAAAAAAAAAAAAAAAAAAAAAAAAAAAAAAAAAAAAAAAAAAAAAAAAAAAAAAAAAAAAAAAAAAAAAAAAAAAAAAAAAAAAAAAAAAAAAAAAAAAAAAAAAAAAAAAAAAAAAAAAAAAAAAAAAAAAAAAAAAAAAAAAAAAAAAAAAAAAAAAAAAAAAAAAAAAAAAAAAAAAAAAAAAAAAAAAAAAAAAAAAAAAAAAAAAAAAAAAAAAAAAAAAAAAAAAAAAAAAAAAAAAAAAAAAAAAAAAAAAAAAAAAAAAAAAAAAAAAAAAAAAAAAAAAAAAAAAAAAAAAAAAAAAAAAAAAAAAAAAAAAAAAAAAAAAAAAAAAAAAAAAAAAAAAAAAAAAAAAAAAAAAAAAAAAAAAAAAAAAAAAAAAAAAAAAAAAAAAAAAAAAAAAAAAAAAAAAAAAAAAAAAAAAAAAAAAAAAAAAAAAAAAAAAAAAAAAAAAAAAAAAAAAAAAAAAAAAAAAAAAAAAAAAAAAAAAAAAAAAAAAAAAAAAAAAAAAAAAAAAAAAAAAAAAAAAAAAAAAAAAAAAAAAAAAAAAAAAAAAAAAAAAAAAAAAAAAAAAAAAAAAAAAAAAAAAAAAAAAAAAAAAAAAAAAAAAAAAAAAAAAAAAAAAAAAAAAAAAAAAAAAAAAAAAAAAAAAAAAAAAAAAAAAAAAAAAAAAAAAAAAAAAAAAAAAAAAAAAAAAAAAAAAAAAAAAAAAAAAAAAAAAAAAAAAAAAAAAAAAAAAAAAAAAAAAAAAAAAAAAAAAAAAAAAAAAAAAAAAAAAAAAAAAAAAAAAAAAAAAAAAAAAAAAAAAAAAAAAAAAAAAAAAAAAAAAAAAAAAAAAAAAAAAAAAAAAAAAAAAAAAAAAAAAAAAAAAAAAAAAAAAAAAAAAAAAAAAAAAAAAAAAAAAAAAAAAAAAAAAAAAAAAAAAAAAAAAAAAAAAAAAAAAAAAAAAAAAAAAAAAAAAAAAAAAAAAAAAAAAAAAAAAAAAAAAAAAAAAAAAAAAAAAAAAAAAAAAAAAAAAAAAAAAAAAAAAAAAAAAAAAAAAAAAAAAAAAAAAAAAAAAAAAAAAAAAAAAAAAAAAAAAAAAAAAAAAAAAAAAAAAAAAAAAAAAAAAAAAAAAAAAAAAAAAAAAAAAAAAAAAAAAAAAAAAAAAAAAAAAAAAAAAAAAAAAAAAAAAAAAAAAAAAAAAAAAAAAAIDFDAaDi62vr99qOBzeczQanTIej4/k8XHJH0wm//6LeTylkq/5oeRmR44cuWhbDAAAAAAAADvp5JNP/qYjR458+3A4vE/yO+Px+CWj0ehNybuT9ycfSj6WnJGcOZWPJ/Xvlfcl70rquS9OHpPcdX19/TKbm5vnasMBAAAAAADQpSpiNjY2LjccDh8wGo3+Lnln8uHkU8mXkq8umC8mtawPJvfKeBdoQwMAAAAAANCFKnwGg8G3DYfDXxmNRm9J6oydzyezyptOkrEeNB6PL9imAAAAAAAAwIIO1CXXRqPRQ5J3JHU2zleqmOk7ih8AAAAAAICO1D18RqPR7ZP/HA6Hn87jjhQ+x6L4AQAAAGBhm5ub5x0Oh9cbj8c3X19f/4721wCwr7TS55HJmcmXj5UxOxnFDwAAAABz29zcPPdoNLp78qfJO9pvNH92Imckb8nf/854PL5NexoA7FlHjhy5aL73vSr5YjKzlNmJKH4AAPaor5500gGRrabtNvP7ap4rspUAe8mB4XD4I6PR6F3Jl5ITXb6mftv5c8mLBoPB/1fPP3sxALB3jMfj6+Z73duSHb2s26wofgAA9qCvnnKj83zyLt9xnzPucuWxyInyqbtd5e5n3O2aF2+7z5b9wnNOuuxDnn/S/Teff9JY5Hh5yPNOOpzH7267Dh2rH+qTurTW9+9GRqPRJdpUmGFjY+PCw+Hwu2dtuz6TMa83GAzO36bRmUOHDl0yr3md4TPzQNMW8uHkV2u7tEUCwKo7kO+9N8z3tw9OfL/b1Sh+AAD2oI+cfO0LnXHXq3wi+arICXOXq7zsU3e7Uv0G9lwe8vyTfuRXnnfSO5Ovipwgn998/kl/1XYdOpYf7q+d/MfkD/s7nIOZhjM4zsFgMLjjeDx+84zt1msy5t+sd3yfnbW1tctm2a9OFv1N5tOS38zyvqUtGgBW1YF8r79xvq/9b7LrZ/oci+IHAGAPUvzIXFH8SP9R/PQoP9zvdvHzirrXS5sOE9rNnX8v+dTE9tqRdF385DW+QJb78qSrm1RX+fOwQ4cOXaQNAQArZzAYfFu+n70+6er7YydR/AAA7EGKH5krih/pP4qfHuWH+90ufqpkuE6bDhPaZV/qDJmZ263PdFn8bG5unjfL++0st+7TM3O8beZNyY9XQdaGAoCVUcVKvo+9MPli+762NFH8AADsQYofmSuKH+k/ip8e5Yf7ZSh+fr9Nh/9zINtmI9mV6/13WfxkebdP6gydmWMtkuFw+Pdra2vXakMBwEo4dOjQN+d72C/ne9kZ09/bliGKHwCAPUjxI3NF8SP9R/HTo/xwv+vFz3A4/B8HF75etsslkudMbqedTFfFz+bm5rmyvKcmn59cflepfSePp9Q4bUgAWHr53nWHZFd+uWMrUfwAAOxBih+ZK4of6T+Knx7lh/tdL36Suq79vduUiOFweM9sk7dObKMdTVfFz+HDhy+d5dUNq2eO01H+KPO9VBsSAJba2trat+T71j/n+1cvvxTRRRQ/AAB7kOJH5oriR/qP4qdH+eF+GYqfryTPqXvBtGnta9kO5xsOh3+cbfLZiW20o+mq+MlyfijL+9j08rtMHTwbDAY3bkMCwNKqM1TzfWst378+Ov39bJmi+AEA2IMUPzJXFD/SfxQ/PcoP98tQ/FQ+Ox6Pr9umta8Nh8PvzvZ4+dT22dHkteiq+HlwlveJ6eV3nFdknO9rQwLA0trY2Lhcvm+9NqmznWd9T+syX0rqHkLvT96evGkq/53UWbn1fbq+9mvP3cni55RTTjnPoUOHLjIYDM7f/goAgD4ofmSuKH6k/yh+epQf7pel+PnieDx+aJvWvlUHP4bD4a9ke+zqbwKvUvGTMd6cbXZyGxIAlla+b/1U0ve9fT6b74t1/8SX5PF3kipxvjePN5jMYDC4Y/7+p/P1j0pekFQ5VEXRl9tzeit+6izvuhxs5vCdGesHMuYpyU3aPwMA0AfFj8wVxY/0H8VPj/JD9rIUP3W5t3ccOXLkom1q+1KVLeOzr/s/axvtWDKHVTrj5x3JvdqQALCUNjY2LpzvV89Lvti+f3Wdr+T77kfy+HfJfevsojb0CZ166qnfmufeeTgc/k6e++o83nNzc/MC7Z+7cCDLv2CWfcX8/8UNs/wfyX//Vv77Fcmn8t//U3NuXwsAQB8UPzJXFD/SfxQ/PcoP2ctS/NRlRT6dx3u0qe1LWf/7JlVkzNxGO5XxahU/r0ru0IYEgKWU76vfn+9XdXm1Wd/LFk2VSW/P/0v9ymAw+LY25LZkOTdZW1u70ubm5rnbX21L3c+ofqEn63215FaZ24Oy7D9JXp98Lvna/BU/AAA7QPEjc0XxI/1H8dOj/JC9NMVP8sX84P+3ix5oWFV1cCTb4A+Sz05sk11JV8VPlnXv5LTJZfeQF2S+N29DAsBSyveq3873rD5+GaLOmn5b8lOHDh365jbcrqiyJ/O4RP5/7gZ5vFNS/ip5azJr7mdF8QMAsAMUPzJXFD/SfxQ/PcoP2ctU/FQ+nh/+r96mt69k3W+fvHpiW+xauip+6rd8s7z3Ti+/w9TNsf/0yJEj396GBIClc/DgwQvl+9WL2/etWd/PFsmH8/9Ov7xbpU87s+fbM4fvzv8/3C3ZzJxelGz5XkaKHwCAHaD4kbmi+JH+o/jpUX7IXqriJz/4f3o8Hh9t09s3Njc3z5v1/7Xk9MntsVvpqvgpeU3/Psv8wvQYHeVjmev6Kaeccp42HAAsnXy/uknyxonvX52k/r8pj0/d2Ni4fBtqR9T/t9T/J2T822b8ukzt45O6X8+2zvLNchQ/AAB9U/zIXFH8SP9R/PQoP2Qv2xk/Xx6Px69ZW1v7ljbFfSHrfe2s97OmtsWupcviJ8u6c1I3m5451gKp35p+QeZ5izYUACyl4XB4v3zP6uMM2Lfke+wPtWF2TMY9mDwxeUObx0JR/AAA7ADFj8wVxY/0H8VPj/JD9rIVP5WPV1nQprgvZJ1/ph30mLU9djxdFj+bm5vnyzL/NPn85Bgd5D3JoSz/Am0oAFhK+X71sOTj7ftXV/lcvl8/fWNj48JtmB2Tsb84NZeFovgBANgBih+ZK4of6T+Knx7lh+xlLH4+Ox6P/6xNcc/Lul4q6/wnSacHURZJl8VPWVtbu9ZwOHxZlt3VvQ1Oz/J+x719AFgF+b71tKTrX4D4QDJoQ+yojKv4AQBYNYofmSuKH+k/ip8e5YfsZSx+vpL89/r6+tXaNPe04XD4g8m/T22DXU3XxU/Jcu+U5b4kj/X6zhx3i/lYUpeXuVFbNAAsrboPXb5nvbh9D+sy/5Xcsg2zozKu4gcAYNUofmSuKH6k/yh+epQfspex+Kl8YjweH2nT3LMOHjx4oazrryWfnFj3XU8fxU/Jcm+T5ddvPX9ucrwtps4WeudwOHz4YDD4rrZIAFhqGxsbl8/3r1dMfD/rJPl++LJ8P7xYG2ZHZXzFDwDAqlH8yFxR/Ej/Ufz0KD9kL2vxUwcUXrwb163fSYPB4KZZz+dNrPdSpK/ip+Q1vUaW/9DhcPjSjLWVwuuL7YDQX+d5919bW7tsWxQALL1877puvo91fWZv/QLFU9sQOy5jK34AAFaN4kfmiuJH+o/ip0f5IXtZi5/K/w6Hw9u1qe45m5ub5846Hko+OLHOS5E+i58yGAzOn/x/GetwUpdtq0vgvD55V8s7klcn/5Q8Krl35nSdulxOWwQArISeip9PZJmPbkPsuIyv+AEAWDWKH5krih/pP4qfHuWH7GUufj6VPL5Ndc85cuTIt2f9qvT4UlvfpUnfxc8xm5ub51pbW7tSxrxlxrzzcDi8ZyX/fY/k9smNDh06dMn25QCwcnoqfj6U5a63IXZcxlf8AACsGsWPzBXFj/QfxU+P8kP2Mhc/dU+X1w0Gg6u26e4pWbd7jMfjN0+s79Jkp4ofANjr+ih+drsoydiKHwCAVaP4kbmi+JH+o/jpUX7IXubipwqIj+TxUJvunlE3Y866/VbW7fOT67ssUfwAQDcUPyeO4gcAYAcofmSuKH6k/yh+epQfspe6+Em+MB6Pn7W5uXm+NuU9YTgcfk/W7QVT67o0UfwAQDcUPyeO4gcAYAcofmSuKH6k/yh+epQfspe9+KnUjf5v2aa88k455ZTzjMfjB2edTptYx6WK4gcAuqH4OXEUPwAAO0DxI3NF8SP9R/HTo/yQ3WnxMz770mynJ1+a/PsF88nkMW3KK6/uWZT1+fOJ9VskH28HS+p+SLP+fVtR/ABANxQ/J47iBwBgByh+ZK4ofqT/KH56lB+yuz7j5y3JC5OPTfzdoqlS49/W1tYu26a90obD4clZn/+eWL9F8ldZ3kvz2GXRpvgBgI4ofk6c3V4fAIB9QfEjc0XxI/1H8dOj/JDddfHzxmSQvH7i77rIe5OVPyCwvr5+mazHo5IvtPVaNHcdj8fPymOnB2AUPwDQDcXPiaP4AQDYAYofmSuKH+k/ip8e5Yfszouf/PB+2+Qp+fNnp/5tkdSy/nIwGJy/TX0ljcfj22Q9/m1ivbadbON/39jYuHz+/A+J4gcAlpDi58TZ7fUBANgXFD8yVxQ/0n8UPz3KD9l9FD/fPR6PfyJ/fvfUvy2SrySvz3Jv1qa+cjY3Ny+QbTPMepw5sV6L5GEHDx68UBb59/mz4gcAlpDi58TZ7fUBANgXFD8yVxQ/0n8UPz3KD9m9FD91P57xePyS/HeX9575ePKwNvWVMxgMvjPb5OlT67StZBt/en19/Yabm5vnyp8VPwCwpBQ/J85urw8AwL6g+JG5oviR/qP46VF+yO6l+GmFxP/Lf5829e+L5MtZ5nMHg8HF2vRXSuZ/96TuVTRr3ebNPxw6dOiStdxsE8XPHnDqqad+aysH75I8MFnLa/G4vL5/OJn83QuTpyV/dOzv8rW/n8cHJQ/I63b9/Pel2mLZY6pUz35y47zWP9xe8wdlXziUx6/bT44l+8Jv5fHY1/149o9b5PlXzefHN7dF0px88snflO10hWyzm+fxJ/P44Gyzx9R2PJb891OT5yR/PvF3T0h+KX9+UJ7zQ9m+37Wq36cWVd/7NzY2rpHtcLNsk3vVNkl+NvnF2lbTydf9brKZP5+1j+bPd8vzbpTt921tkXtC1kvxc4Ls9voAAOwLih+ZK4of6T+Knx7lh+xeip9a9tra2rXy3/819e+L5h1Z/j3PmvwKOXLkyLdn7o9PujoD6u7HDtxmeyh+Vkz2h4vmdbtB8oDk0dneL0nenG3/38n/Jh9KPpqckdSlASdT+1Dd82ry7z6VfDip572zllXLzJ/rgPR9673Yht43qtzIuteB58fmsYqyVyf/OSv5mr/NY5VsdYD66m0Ruy6v4XUzr59KHpU/19mCb0jemrwrqf2kXvMP598+ksfJ/WEyn0zO+rrkA0ldgvPtyRuT5yePzPMfmO1147p0ZBt632jfp+6b1HvllcnbktpGH2jbdfo9WO+9+rz9zMTf1fuvzkitbfy+5L/z3Ho/vyB5fP7889mvbrfXyqDaX7J+t05+JvmT5HlJfc9/R1L7aO1vx/a92j6T23Fy29UviBz7utqv67m1n782eWa230Oz/X6kviedcsop52nDr5Ssg+LnBNnt9QEA2BcUPzJXFD/SfxQ/PcoP2b0VP5ubm+fOfz8x//3pqa9ZJHXQ7YlnTX6FZBvcLvOug7az1mne/FcrZQ60ZS998ZM5Vsnxs1n2oa6S5f1AFShtiKWXOV8iqbO+fi95Veb/P9nOdWC5Dnx2eUnEY6llntnGeE/yijqAmtf1VoPB4PxtWp3Ici+V9blPxpj5Wm0nWd6PzHugPM+7duayljwrf66Dz3UgubZvfW58OZm1nSqfS+rrPpa8I8//6bbIHVVn8WXsOuOh9pHX1z6Sx2MFYM1x1twXSX1u1LJrjDobsQ60/17m8BMbGxuXa9Pac7Jdr551PJJ1rbPn3pM/HyvOjrePbCe1fWu5tV+9P6li95+SUfbt71rFs64y76tk+oezzaqIfEtSRc1Hs03r+/wXklnbYbupe/t9PvlEUqV2FXL/kjws498m++iF27R2RMa9RMa9cx5nfmadIL+RVCk4az23m9Myn7/I46zxdiJdv1+qAHxyMmusbSf77J46ewwAYCGKH5krih/pP4qfHuWH4t6Kn5L/vkfS1eXNKnUg6BUZ43ptiKW3ubl5gcz5cNLJQbGs+/9bW1v7lrb4lSh+ssw6AFO//X16V6kDXsmV2xBLKfO7YLbj92e+9dvw9Zvwxw6Q9lH0nCg1Zh3krwOor0p+dTAY3LhNdSFZx+tnefU5MvO12k6y7f45j9dsQxxXjZ+v/918fZ3JUs+v91p9VszaDidKPffUtujeZaxLZJ/44Tz+aVJnORzbR7Y7/0VSl9OssauoeHv+/Me1/+70Afa+ZH1+IOv1jDxWoVZlQqefm1vMsSLj/dlnX5K5jOuM0LpEWpvm0sn3mytlrj+fOT87qfKl3mNVRO7GPnqsrKzPsdclD8k2vN5OlGjZBtfJeHWpv6/7rNpias5df+4fe7/OGm8nMmtOi6SX9cln2C3aSwgAgOJH5oriR/qP4qdH+aG41+Jnc3PzfPnvl+Xvu/zN0PrN6UEbYull/a+X+f7jxPwXSf32+I0mDxJm+atwxs84y61LI80cbzvJMv+2yzl2qc7cyPzul3nWpZ7qEkcnOuNkp3PW2UBJlXF/NxgM7ljv1Tb9uWUZN0remcwaa7v51+TabYiZDh8+fOls52G+ri7ZVvtXFweid6T4yb57tUz9lzNWnQlYv+m+WwfSzyk1l9pva/99cT4TfmKVzrCbVPt3tvVzsw51Zk8VL7PWdzdyVomRef12Hi/Rprs0Mqe6jFsVknXptbpk4CKFah+pz9RP1eua1/cpeZ1vms+x87bpdy5j1Pfyf5gYX1Yg2S/m/jkVAGDPUvzIXFH8SP9R/PQoPxT3WvyU/N0vJHXwcNbXbyd1sOeZR48evXgbYqllrnV5rzpoNmtd5koVMoOpy5Zkeyt+lkTtk9l2D8z8XpHUpcN244yCeVMHc+ssk19sqzG3PH/Hi5+8D25c+0BSvyHeZanWa/GTede9hx6W1NlJ9Z5YpkLwnHLsLIt/yfa+56qcAZS51oH6v6xioK3DrHVbhvxB5nipNu1dl8/VW2Q+dSm3OqumirJlKnvOKTXP0/OaPyXzv+Hm5ua52+p0pu1Pip8Vi+IHAGCC4kfmiuJH+o/ip0f5oXgnip8rJnWQc9bXbzd1Y/K7tiGWVl3CJ/Osm4Z3cuBsPB7fbfqSNtneip9d1s5sq8tI1SXUVuVg/tclr/lvt9WZW56/o8XPYDC4Y/6tyrU+Dub3Uvyceuqp35rlbiR176FVOZg+nTpTrPbvem1uucw32s/8fiapfXIVytelKH7yGXa9zKMuoXmsKFvFfbTmXWcB/X4erzh5duyiavtkmYqfFYviBwBgguJH5oriR/qP4qdH+aG49+InDozH4z/Lv3V54P/MjPPYtvyllfX+vsy1LpMzax3mzes3Njau0Rb9NdkOip9d1Mq9uofPqh7MP5ZHtVWaW567Y8VPXvO6Z1IVbH2Va50WP1UKZnl3Suqm9Kt6MH06te0/ns+Jh07eb2wZZE6Xytzq/Vj30VmVbb2rxc9gMLhY5lCqlNyN+4/1kVqPd+b7xA93VVBmWYqfFYziBwBgguJH5oriR/qP4qdH+aF4J4qfOhh3l/zbB6e+dtG8cG1t7VptiKVT98PIeq/PmPd282uzLm+X7a342QXZRhfMHE7OXOpstr1wMH/Zi58DrfR5ddLn9u6q+DmQz6fLZj95aJZXl8zaC/vIdGqdXplcs8szK7ap9o/vyFyel9RrOGu+y5rdKn7qlzJulvGfmdQ9pmbNbdVTJWVt3wu2dd62fN4rflYwih8AgAmKH5krih/pP4qfHuWH4h0pfkr+revf0n93xnpQW/zSyfzqYHj9lv+suc+bur/GTdqiv062geJnZ9XB0jqr4FeTMyfntOJZ5uLnQP5867zmL534976ycPFz8sknf1Pm+j3Jc6eWvVdzRtb1B6YvQ7lTqnRqpeAbpua1Ktnx4ufgwYMXypj3T948Yz57MXV52IUu/ZZ9XPGzglH8AABMUPzIXFH8SP9R/PQoPxTvZPFT91w4beJru8jTlvFG45ubm+fN3H486arseOZgMLhKW/zXyfZW/OycKiDqnlVPm5zLHsnSFj/1OufPdfmuWV/XdRYqftp7/65Jl5+rK5F8bqwnC59ZMY+J0ud10/NZoexk8VNnon1Lxjua1L18Zs1nr+aT2VduVcVs2xZzyfccxc8KRvEDADBB8SNzRfEj/Ufx06P8ULxjxU9d9ij/XgeHO7vkUcb69zzeqQ2xNOq+L+Ozby49c95zpu5VcN/Nzc0LtMV/nWwDxc/OqDN9rpw8a9Z89kCWsvip/T7b/MH582cn/q3PbLv4qRI6++XP5fldX9ZyZZLXasfKn1b63DDjdnVm5W5lR4qf2l75PnyljPW7GXOvXtrtRDk9uXW2xbnbZtmyvLcVPysYxQ8AwATFj8wVxY/0H8VPj/JD8Y4VPyX/9th8TZcFwCfG4/Gvb/c3ePtQB9cyr9snH5uY5yJ54/r6+vXb4r9Btqnip397vfSpLF3xk+19nbzOt83ja2b8e1/ZTvFzoO7plecdTPZt6XMseb12pPzJWFfMOE/P46rd02c6vRc/9X0pY1w5Yz0+2a+lz7F8tD5XTjnllPO0zbMleY7iZwWj+AEAmKD4kbmi+JH+o/jpUX4o3tHiZ319/Vb5mrrR+aznbjf/lOVerQ2x6zKfS2Qb/MrUHLebOjvq1w4dOnTJtvhvkLEUP/3aD6VPZRmLn9vk8WFTf9935i1+zrp0VvbHn83zPjCxnH2des9vbm6er22jzmXZF8gYD89Yn5geewXTa/FTpU9dKjTb63cy1n4vfY7lQ9ket6tt0zbTCeXrFT8rGMUPAMAExY/MFcWP9B/FT4/yQ/GOFj8lX/OCpMui4t3j8fin2+J324F2cOjfpua43dRZQ3c43hlNGU/x058DGxsbl98HpU9l2Yqfeg8dSuqm7LP+va/MVfzUTfLz9T+VKH2+Pl/Ke/Se855VsRX1eZj35I9ljJ3eN/pKn8VPnY327XktHp1xlD7/l/qlivcm12zb6YSyDRU/KxjFDwDABMWPzBXFj/QfxU+P8kPxbhQ/dZD0zInnLJo6UPuE/HB//jbErqnfcM9c7jUxt4WSbfm3ydXb4mfKvyt+enL06NGLZ5w/njX+HsyyFT/1WfKUGX/fd7Zc/Bw6dOib87V3Sl7bnitfn4/mPXqLtrk6U0VGlv3XU2Otcnorfk499dRvzfIHSddn2u6FVDn5sq1u+3yt4mcFo/gBAJig+JG5oviR/qP46VF+KN7x4ufw4cOXzte9K6nfuJ21jO3k3zLubdsQu6ZunJ25PHVqbtvN58fj8QPrkkZt8TNlvRU/PaiD+tkO67PG3qNZtuLns0ndiH3Wv/WZLRU/eV+eO/vHzfK1z5t4rnx9vpz36b9vbGxcrm22hdXZPlnuKcm7J8bpM7UOn85jXVKuypM6s6vy4fq79m+Lfv72UvzUL0Nk2fWLCO+ZGEu+Pp/Ja/g72Ucv3DbbOcrXKX5WMIofAIAJih+ZK4of6T+Knx7lh+IdL37KeDz+rXzt56eeu0g+mmUeqYOxbYgd1w4Ef1/m8vGpuW03rxsMBjdtiz9H2d6Knx5k298x43R5Ztp2c6wA+d/kfUkdxH1TSx38rr+rfDJZ5D21bMXPbmUrxc+BfM0Vkye05+xW6n1fr3vtH8f2g2OpcuKTeZ9UMTHruTuV2p5/tJUD61vRzvb5y4nl95F6H30wqffYi5InJY/M5+LP57HOWK3UWTSPSurfnpPt/O95fHvygbbNv5zMWvasdF781CX26oB3lvuSGePtVOqXO+rzq0qzjyaT++f/Zm4fyeMZyW5fgu7jec0ecLxLqpZ8jeJnBaP4AQCYoPiRuaL4kf6j+OlRfijereLnOvnaun/NrGVsN0+rM27aEDuuDtxlDo+cmtN28+Us79drmW3x5yjbW/HTsXZw+W3TY+5Q6kDp+5N6L70sj09OfjM5Ja/L/ZMfzZ9vlHW/fh7v0f7ugfnz45K6/NXLk7ckdaD1S8msMWZF8XN2Tlj8HDp06CLZ5lUC1Gs1axl9pd7nddZJvb6vSJ6ZfeSxmctvtf1gMj9f/5aveWLyr/lzFRNVFNaB9nlKiS5yRsb/ybb5FpJl/Xjy1olld5l6v7wjc63P1MN5vEEb9oSyvS+Vr79tbfc8t7Z5vQ/fnb/bSvHWdfFzYDAYXDXL/aOpcXYi9Tlfxc5/Jv+SPDXboO4v9JC2X56V/HeVZ6cmVZ4+Lal7etVzquDu9HvFFvKVzOnNebx2234zZT0UPysYxQ8AwATFj8wVxY/0H8VPj/JD8a4UP2U8Hv9zvr7LA5B1MPDH2+J31Obm5rmy3jfI+P81MZ9F8sFsnx860W8gl4yr+OlQu1n/nyRdXorwRPlStnn99nvdK6aKnkNZv+850WX+ZjhQ9/TIc2+XZdSB1mflsc5a2Mol0/ZS8VNnbNSZMFWg1WUla26VKsNOS453ZtRxi586kyLb9XvzNbVdZz2/j3wiY9aB6TrovJHcPv+95aKgLlu4sbFxjTyvLvv1+KQOyNfB+VrXWeN1nfqc/88qVNuUtmVw9qXLHpH0Me8q8V6Y3GMb77tvUL+EkPfhT+Z1+rMs87V5rPf3ORWxnRY/2c4XzTIPJXWmzazx+sgHsg6vaet7Sl6rm86zHeuMsHpOttnPJXVvr/r/kvrlkJ0qKc/MuH9cpW6b0jfI/K6S9XtovrYu7zhvqqit0nXW2NtN7bNvTGaNtxPp+ntkL+uT1+y67SUEAEDxI3NF8SP9R/HTo/xQvJvFz13y9Z0dwMu4n04eXgfu2xA7Jutywcyh7jsxc27bSJ25cc22+OPKOit+OpRl1xkFXV6G8HipA8F1Sa66nNRDsk7X29zcPG+bysLafnmHpM5EqwOPVXzMmkdl1Yuf+ix5b1JnWjwt2/LRWf+1PN4n/12Fx73y519JHp7UgeXnJ/XZV8+ZPIB53OJnY2Pj8nn+H098fZ+pA6FVGvz2YDC441aK4BPJ/nXuOoCddfi5LPdZWX6VY70fXM94debLI2v8NpW5Zd7flWX0ccZFfX4+I7liG6oz7V5h182y6/393OR/8ufp73udFT+1fbO8Wyevnlh+nzktc6/LyY3yeJ02jYVUYZRl3Sz59Sy2zgSqsnbW2F2nLj93tzaNTmW5181rX2fdzRp3W2n70n3bEDsuY3f6/x27vT4AAPuC4kfmiuJH+o/ip0f5IXvXip86uJOvr3sizFrOdvOC8Xh88zbEjmmXBvvHqblsN5/PNvzZ2j5t8ceVr1X8dKQO6mfZddbWTpztU2ek1EHNU7MuV1/kgPiJtLNUrpPUb6vXmLMKoFUtfuog+luzbk/P48G1tbVr1cH2NrVzdPTo0Ytn/7lVPae9h16bxyonzrH4yWt0vnzNyfn3rZxBtVAyTh0E/fM8fndf+0b73CqvTD6VzJxLR6n31DsGg8F3tuHnltf4bllGXQ5s1vK3m5rX6xY9G2kr8lpeIWP9TB5rf6t7dR0rgDorfrL/XzbL+u223D5T33PekHV5eF7Tb2vDd6o+tzLGjTJGXSqu/l+h70L+sxnrb7MNv6VNoTN5TRQ/J8hurw8AwL6g+JG5oviR/qP46VF+yN614qfka38xz+nyIHtdIu3BdcCoDdG7dnCqzqro6mDwfw3muCZ9tqHipwPtdXxY0veNxussn3dnG/9+5n+LKhPaFHqXsc6b7Vb3qaj1/I/8efL+I6tY/NT9bv4h2/LH6hJ3bTpzy3apErrOknhClvWaPI7aP0060C6XVpcPmjWXrlLv5dclh+vyV23s3tR+X583We+/yJgfbnPoK5/KOL+93SIrz6/Ll3V9b7gv5n1wchtiR7TC7WeyLepyp6fn8feThYufei2zLj+QZdZZbLPWtatUaf3sGquvUnJSvbcz3n2TOjOy74LyvVmvH2lDdyavr+LnBNnt9QEA2BcUPzJXFD/SfxQ/PcoP2bta/LQDqZ1e9348Hv/ZTvz29jF1wC7r/Iez5rLNPCrb5XJt8SeUsRU/Hcgyq7yoy671ebZPlT6vz/Z98DyvcdeqUMg87pQ8Kal74NS8Vqn4qfn+d/aB/5d94GptGl04kOXeIcu9Xfvvr6lyKH9/v/x7n8VgvY/rEnR3yng7VgiW2o4Zty4JWO+BWXPrIvXeqrOz5r7nRl3mLs+twnLWchfJe+u1bcPsqNoOGf83k9FgMLhY++tty/v68lnm77b16iufzBi/X2dudXHpwa3Ka3TejHubjP93Sdf3ypnMZzPO3yxSJM9Sr3U+PxQ/x8lurw8AwL6g+JG5oviR/qP46VF+yN7V4qfkOf80tYxFU2cy/GBbfK82NzfPVQd0MmZdtmfWXObNh7O8H53ngFrWVfGzoPab8lXe9XlQv9b/X7Ntf6yKlzb0rqryKev9s5nTS5Jfb389t6zXThY/VfrUJaZ+7vDhw5duU+jbgcFgcNWMWzf/nzWnLlJnntQ9YL6n9sc27o5aW1u7UsZ/eObSZ/lTB+0f2YbcsjoQn7n9ztSyFk72+79oQ+yKKvgyhytv5fKEx1PFSPbRO2ad3je9jh3mE8nvZZy6tNuBs0feWRn/lkmVP32e+fPO7Gud/j9EXmPFzwmy2+sDALAvKH5krih+pP8ofnqUH7J3vfgZj8d3nrGcRfKZLPOhBw8evFAbojcZ54JZ35+bMYft5hlZ5lw3yM74ip8FZTnXzzKnb/LfZT6T+T43j7ff3IFLI82jDjwPzr7U1/e1v5pb1msni5/6jHnAoUOHLtKG711to4xZ9/bpsxj81+TWdQC/DbsrqvzJPB6TzLoPVBep99jr5z3jLc+5YvbRP5tYTifJ6/rLbYiVViVotk+f9/ap+xH9STubdldKn2Myjyp/XpD0dc+fKid/r8sCNq+N4ucE2e31AQDYFxQ/MlcUP9J/FD89yg/Zu178VEGT571lajmL5h8zjxu0IXpTv/mcsepm+bPmMG/qxtLjec8GyXMUPwvK8h6Z5U3e76bL1BkqL8/yf3C3zuToW9ZvR4qfbMP/SYY7WfqUOqieYZ8ya04dpT7/7rG5S5ccm5bPte/MfP4q69zXe6LuxXb/NtyW5DmKn3NWlyis92DX30e/lmz7f85+8V07eXm348mc7p68IfnysTl2nLrP1rXbcAtT/Jw4u70+AAD7guJH5oriR/qP4qdH+SF714ufzc3Nc+V5ZdbytpU6gJDcr8+DVHUQP2PVfVK6OgugLlH3DfcWOZE8R/GzgCzriskbk14OIGZbvjl54E6XFTsp67kTxc8n8pr/Tt3HpA27I+ozJK/fzZKPzJhTF6nLZ3Vyj5cuZUr12VYHv2fNedHUfVSePs/ZTXlOL8VP8gdtiJXVfnniZ6bWq8u8NZ+135/PsIUuR9el2ncyr19IPjgxzy7zwXzeDNtwC8u+q/g5QXZ7fQAA9gXFj8wVxY/0H8VPj/JD9q4XP2U8Hl+54wOrdb+Mx66vr1+mDdG5OlCbMTo7CyDLevS8lz8qeZ7iZwFZTl2q77Tp5XeUulfKLy3bQf2uZR37Ln7qrKnn57Wa+7NlUXUGXsY+dWIunab24+TqbbilUWcf5XPgoZljL5d8y7LfnMctn1GRr+2r+HlDG2JltcvzdX2vvGP5Qrb70brHUhtuaeRz9SqZ3zOSz07Mt6t8vr4PJhdswy0ky1H8nCC7vT4AAPuC4kfmiuJH+o/ip0f5IXspip/227tPnFrWonnleIH7lhxPnaWU9bxBxujqoOj/Zq4/sZ0zlDIPxc821W+wZ1nPSer+FTPHWSB1r6m/GAwGV23D7VlZ176Ln3p/rO3GpfLW1tYum33tZTPm1EXendwj+8j523BLJdv8uplf3Uulj7Ph3p/lP7ANdUL5+r6KnzPy+i5d8bZV9T0j61D3vPn4xDp1mRdl//yu+p7Xhlwq2Sd+InPs5bMny35NrXsbaiH1Xsp+pvg5TnZ7fQAA9gXFj8wVxY/0H8VPj/JD9rIUP+caj8ffm+d3efP0T2WZ60knv7E7qX4bPuv5yzPG3G6esd0DTJmH4meb8vzrZzl1sGnmGAvm9Vn2D7eh9rSsa5/FT53t849ra2vXasPtmGOXecv4n5qYT2fJ/vHYnb503TyqaMv6b2aufZz1c2bW/4/bUCeUr++r+Kn965FtmJXTzkg7PLE+Xab2+/v28T20K4cOHbpk9qP6Hvj5iXl3lXdn2Q9oQy0k21Dxc4Ls9voAAOwLih+ZK4of6T+Knx7lh+ylKH7K0aNHL57nv2pqeYvmaUlnN2huDtTB2iz3PyfGWSRViJxa92loy59LtrfiZ5uynNLHb8qfkTxuGS+P1Iesa2/FT/bFj+S1/sXNzc1zt+F2TJ2Jk7HrUoAz57ZgPpR1u9turNc8Mscqvrr+XK58JXl5cok21HHltbhYvvbx7bldpubx3not2lArpS4PmvnX97lZ67Zo/jXb5TptqKXV3qP/OzX3LlLF1xPaMAvJdlT8nCC7vT4AAPuC4kfmiuJH+o/ip0f5IXtpip/Nsy/3dmhqeYvmPck92hCdqN+CzzLvmnTyG8bj8fg1ebx9W/zcsr0VP9uU5Tw76fwyb5lbHeC7Uxtmz8u69nnGz8vzOt+iDbWjqrjLe+EvZsypizxzFQ6qV/mVedaZNn3cR+WtWf6W/h+yXdLsYVPP7ypfrvds8iNtuJWROV898+/rvfdL9QsZbaillc+Hq2Wur52aexepSxw+p4ttkPeQ4ucE2e31AQDYFxQ/MlcUP9J/FD89yg/ZS1P8xIF2AKduiD9r2dtJXcbnEYcPH750G2Nh7dI6Xd5I+3FZ78u0xc8t21vxsw1Hjhz59iznbdPL7SB1ts/j19bWvqUNtedlffsqfqpcfeJ2z4ZbVL0vM/5/T8ynq9R6Ha7PkjbUUstcfybvtzooO2tdFsn7s9yfbcOcUL6+LmnW171s6nvFf2Q+D1qV926dLZbP6u/LvPu4R9m7atnbue/cTmu/jFH3CDxzYv6dJNug7vNz4zbUtil+TpzdXh8AgH1B8SNzRfEj/Ufx06P8kL1Mxc9JdYA3y/i9qWUulPF4/JLM6XvaEAvZ3Nw812AwuGmW29UBpg9kfvdf5OBa1k3xsw15/o9kOX1cHuhNSadnmS27rG9fxc8Hk402zI6auL9P5wfVs9w3J9/bhlp6+cz7zsz7FdPr0UE+kTyqDXNCec/+cL6+y+9X06kzPOos0T/J6/N9+bw/Xxt6KR06dOgimetGm3vXeWpe96u2oZZe5nvf5L0T8+8k7b16lzbMtmUZip8TZLfXBwBgX1D8yFxR/Ej/Ufz0KD9kL1XxU7/BnOffLsvp8rJCpyendHEQL8uoy9H9xsSyF82zF/1t4mwvxc82ZBn1OtaB55nL32bqrIF/qHtAtWH2haxzX8XPG/I6/2AbZkcdOnTom/M+eOCMOXWRp62trV2rDbX06rMz2+LpmXfXJVh9bj2zDXNCeb/fMPN41tQy+sjnkldl33tscrtlLYCyLS6V9HIpwvrMPnLkyEXbUEuv3k+Zd1f33ZtMnYE8asNsW14nxc8JstvrAwCwLyh+ZK4ofqT/KH56lB+yl6r4KetnX17p+VPLXTRP6uK3lw8dOnTJLKuT3yrOdvp0Hh+y6GWsshzFzzZkGbWPdbrdko9n2/36KlweqUtZ776Kn+fnfXuVNsyO2tzcvEDG7+WeMtlHNrNeF2tDrYTM+zeT0ybXo4vkffyyrRYMdYZLvv7ReV7X79tZ+UpSN/d/dfK4vGbfu2wFUBXM2R4vbfPtMp/M+t5llT7H6rXJvP8lqbO2Zq3TdlP7wOPaMNuW7an4OUF2e30AAPYFxY/MFcWP9B/FT4/yQ/bSFT/1m/ZZxk/OWPYieXuy0M32Nzc3z5Vl3GtimYum7iex8NkMWYbiZ04bGxuXyzL6+O3wuszbXdsw+0bWuZfip/bDvO/O24bZUVVGZPxnzZrXgvl8lrvQ5R13Q+Z9St5zdWB21jotktfm/XiNNswJZdvVWVh1ObZZy+ojVQDVfbtel7H/LPnR5FJtOrsqn391T7w6o3XWvBfJa7OON2vDrIx6fbKP1i9UzFqn7abO4lz4/0EzN8XPCbLb6wMAsC8ofmSuKH6k/yh+epQfspeu+IkDdXZOltXljfe/MB6PN/N4iTbG3NoNpP91YpmL5onZVldoi9+2LEPxM6c6qJllVBk4c9kL5EVZ9pXbMPtG1ruP4qfOOvitNsSOO3r06MUzh3dMzWnhZL/9n2RXLl+3iLzXbpH5v2F6fTrIm/J5v+X/j6yyoz6fZixnJ1KXIH17+8wdJNdu09pxVRy212TWPBdKW79dW7ftyryHmfeHJ9eli2R/e9ail73LMhQ/J8hurw8AwL6g+JG5oviR/qP46VF+yF7G4qeu1/8tWdajppa9aJ6dud2gDTG38Xh8myyjq3sP/W/m8qDNzc1zt8VvW5aj+JlTnv/jyfsml9dBvpTt9vTdOkNlN2Xd+yh+PpTteaQNseMy9qUyh7rXy6y5LZIXDAaDm7ZhVkYVLpn7q6bWpYu8M+/le7ZhTqgV8KcmH5tYxk7n88n7k1ckj0/usLGxceE2xR3R7kH1oxl71vwWzSPyPfiybaiVke3xE5l715/r9f3wJbX/t2G2JctQ/Jwgu70+AAD7guJH5oriR/qP4qdH+SF7KYuf+m3mLOd7srwuy4JPJj++3bIl8/njqeVtO+Px+J8Hg8GN26IXknkpfuaU529kHT8yvcwF84ksc9fOUNlNWfc+ip935DX+yTbETquzDq8yY05d5K+z7O9s46yMfG7WPVReNLUuXeTdyb3bMFtSl4bLc545sYzdyrHLwNXZqX+d3DufSZdp0+xV3Rsu7486w2XWvBbNRv3yRRtqZWTb1xlQfZylV/dRWugMKMXPibPb6wMAsC8ofmSuKH6k/yh+epQfspey+Cl1H5Zx9/fYeMKRI0e+vQ2xZfXbz3luVzc2PzPr9dDBYHD+tviFZHsrfuaU5z8mqSJw5rK3mfcmB9sQ+0rWu4/i5y15jU9uQ+yoKofz/rzjjDl1kcfls+3ybaiVkrk/f2pdukhdmuvUNsSW1OuT59w7eWtbxjKkzgatz4A6s/QBhw8fvnSbbi96Oiv2WO61avegKvl+cMPMvctLxB7L6/Ka3q4Nsy2KnxNnt9cHAGBfUPzIXFH8SP9R/PQoP2QvbfFTv2E+PvvSLbPG2W7emWV+bxtiy7JOPzdjWdtN3ST8h9qiF5a5KX7mlOc/Kc/v+ibg76j9tQ2xr2Td+yh+/iPb8/vaEDuqioWMfbcZc1o4We5vZb/dkbNCupa5/27W4VPT67RgqlD/zTbElh06dOgimc9v57ldF7iLpi4D94HkOfmMuV/meck25U6deuqp35ox6jJzs+awaO7Rhlkped9eIHPv8v9nzkr2szfn8e5tmG3JMhQ/J8hurw8AwL6g+JG5oviR/qP46VF+yF7a4icOrK2tXSvLfNPUGIuk7sPy83WZnDbGluQ5r5mxrO3mz+tsprbohWV7K37mlPV7SZbx5ellLpjXJbdsQ+wrWe8+ip9/q4OlbYgd1e4jU2eUzJrXohl1dbbfTsvrUUXLJybWpYucnuVu6xKJef/XfYf+Lun086+jVAH0oeRpmectap9q0+7E0aNHL55lP6mN1WW29csRyyLzf+3U+nSRtyQLlWH1WZbvWYqf42S31wcAYF9Q/MhcUfxI/1H89Cg/ZC9z8XPst5p/dWqMRfNP4/H4Om2IE8r6/HCeU5fxmbWsefPeLO9nNzc3z9UWv7AsT/Ezpzz/5dPL6yCvHAwG39WG2Fey7n0UP/+aLHRfje2qsw0z9sMm5tJlTskQB84eabXkc2Gpip+6HFk+A+ryXs9JlrH8qdT3jv/O59XD19bWrtSmvrCs92WyzJdNjbVw8lq8OZ9jc/9//bLIOih+dkjGVvwAAKwaxY/MFcWP9B/FT4/yQ/ZSFz9VkAwGg5uOu70Rf11a6K51Oac2zHFl7L/J13d1dsjzkhu1RXci21vxM6c8v4/i5xXZblsuFPeSrPueK37yWv7W1Hy6yk+1YVZOtslSFT+lPsfzWXCDLKc+W5e1/PlK8qms50uqVNnq957jafede/XEGJ0kc1T8fGMUPzNkbMUPAMCqUfzIXFH8SP9R/PQoP2QvdfFT6kboWe6Tp8ZZJHUQ7hF14KwNcY4Gg8G35WtPn3juIvlC8qguDvpNyvZW/Myhfus+z+/8PhCJ4mf2dtluFD9LJttk6YqfUmf+5PPgelnW05Ku70HUZepz+n2Z633mvdzoNMXPbFkHxc8OydiKHwCAVaP4kbmi+JH+o/jpUX7IXvripx2E/bEZYy2S1w0Ggxu3Ic5Rvu4hSRU2s5Yxb96UbXPPtujOZJmKnznkeXWA+I3Ty+sgip/Z22W7UfwsmWyTpSx+Sl6zcx0+fPjSWd4jk49NLH/ZctbZP8mvZr0v1aY/N8XPbFkHxc8OydiKHwCAVaP4kbmi+JH+o/jpUX7IXvrip2S5Nc9XTIyzaL6cef5kHeBtQ8yUr3tHUgfqZi1j3vzVIgf6zknWQ/Ezhzzn+nm+4qdDWXfFz9aj+Pn6dFL8NAcOHTr0zfXZnuW+KfnSxDjLls8ndf+6S7S5z0XxM1vWQfGzQzK24gcAYNUofmSuKH6k/yh+epQfslei+Dl69OjFs+w6+2bWmNvNMwaDwVXbEN8g63FyvubMqedsNx/K8sZZbOc3dc9yFT9zUPx0L+uu+Nl6FD9fny6Ln7PUpd+OHDny7Vn2nyddfYb3kS9m3TfzfehibepbpviZLeug+NkhGVvxAwCwahQ/MlcUP9J/FD89yg/ZK1H8lFpulv/BqfEWSR0QvHVb/LQD+bcXJp38xnjm/tLxeHzztuxOZdmKnzkofrqXdVf8bDFZ7k+3YVZO5r4Sxc+EA/mcuG3GeHnyuYkxlyl1RunPzHvPH8XPbFmHzouf2iZ5VPxMydiKHwCAVaP4kbmi+JH+o/jpUX7IXpniJ8u+YvKnE2MtnPF4vJnHb7jUTh2kyd93dZ+Iz2Wb/E5bdOeybMXPHPK8vu7x89osu5d9f9ll3fdc8ZOxHzExly5zuC5H1oZaKdm/H535d138vC/5mTZEbzLGvZO3JVUAfTmZNZfdSt3z55Z1plKb7gm14udVE8voKu9Nbt+GWSl5354r+2in5UrLKwZbuCfg8Sh+TpzdXh8AgH1B8SNzRfEj/Ufx06P8kL0yxU/7LfyfyBhdHmx4ZZY5fZZGne3zuOSzE1+3SN6UbXJyW3bnsmzFzxyybhfM8/s4YPr2LPvH2jD7StZ9TxU/p5xyynky9n0n5tJZso/8Vvbby7ShVkrm//zp9ekg707u3Ybo1cbGxoWz/e+fvCZjVtmyNPcAyufZS/N4xUxzS5cDPXTo0CXz9c+YXEaHWejslt2S99UNM/cq92at07bTXpuFPouyzyl+TpDdXh8AgH1B8SNzRfEj/Ufx06P8kL0yxU/J8mu+z54Yb+GMx+OfqFKpDVFjXCJ5a1KX4Jn5nDlSv1n+19u5h8NWZXsrfuaU59eln2Yud4G8J9ttZS/jtYis+1474+fceS3vNjWfTpL99tEbGxuXa0OtjDobJfN/wfT6dJB3JT/ehtkxGfMeSa3P6UlXJf9Cyb7xoOx7F2hTPK5TTz31W/Ocx08vo4tkHvess2faUCsjc79J8vbJdeko/5L37DXaMNui+Dlxdnt9AAD2BcWPzBXFj/QfxU+P8kP2ShU/a2tr35IxSpeX6nlq5nyFNkRtk/pN/9Mm/n2RfHA8Hq+3Rfcic1f8zCnPr1Khi2JvMrXP/EYbYl/Jeu+54if71w9Ozaer/GP22+u3oVZGvdcy91dOrUsX+Y86KN6G2XFZr1vktf6dzOMDyRnJbp4F9I5siytnWic866e+F2bej52xjIWTOcy8BOqyy7x/LPOuSwfOXK/tpr7XtCG2rfbxLEfxc5zs9voAAOwLih+ZK4of6T+Knx7lh+yVKn5Kxrh18p6JMRfKeDz+yGAwuGn9hnPdeyN/V2eDdHHwr4qFf6tlt6n3Ittb8TOnrN/Ts4yub/Zer8FfznOfjr0i672nip840IqOWfNaKNn3XtL3Z2Qf6h4nmX+X3yvOSrZFHQy/ZhtmtxyoS6fltTmSubwiqfu77UoBlDn8dL4Xfe0M1HNy8ODBC+Vr12cto4M8ahXPSsu8DyYfnFiPLlK/ZLLw/4PmtVL8nCC7vT4AAPuC4kfmiuJH+o/ip0f5IXvlip8s/woZp9NL3GSZ4yNHjlx0PB5/b/67qwNHn8nyfrdNuzeZu+JnTnlu/ab8J6eX2UFesLGxcfk2zL6R9d5rxU8dqL1Uxu+6HKy8O8u+cxtmZeQ9c7+a+9S6LJoqx5/fhlgKdam1vD73z7xq/3t/stOXgfu32vfadM5RlUP52h+fem4nad9Tdu29t12Z8x8lZx5bj47y0bwem22IbcsyFD8nyG6vDwDAvqD4kbmi+JH+o/jpUX7IXrnip12G6eSM1eUBnn/JMq+exyckXS33rTXPNu3eZAzFz5zy/FOTj04ur6O8IblTG2bfyDrvueKn7suV8f9rYj5d5qdW7cywzPnXkjoTZtb6bDdVjv9ZG2Kp5PU/f+Z3p/oszOOHkk4/Y4+XY2egtqnM1O65VGe/zlzGgnl7Pltv1YZaCfX/BZn3i5IuLwN7VhmRPKgNs22KnxNnt9cHAGBfUPzIXFH8SP9R/PQoP2SvXPFTBoPBd2Wsf5oae6Fk3j/bDjzM/Pc5U5cJevZOXC4nc1b8zCnPr9+U7/xeENluH8njQ0500HavyTrvueKn3U+sbv4/a26L5mF1abE21NJrB9WfmnR9BlSVr7/UhllKtR/kff3TyUsy149PzL3P/FIVT20K5yifgfXLCl2f4VL5bNb3bqtUTmZ7XSXzfv3UenSR/8z3me9vw2xbtqfi5wTZ7fUBANgXFD8yVxQ/0n8UPz3KD9krWfy0g7IbSZcHHuogZCfLO1YAtOn2Kttb8TOn7D/Xyjq+edZyF8wXa9slJ7xU016S9d5zxc/m5uYFMv7DJubTZf4x+8h121BLrw6q5/32shnrsWjeneX2flZkF6rEz2v20Mz5HUkflwCczD8dOnToIm3oc1SXlcz2e+mM53eRhySXaEMtvbw2P5r5dnbvv4n8a+3/bZhtq/d7XivFz3Gy2+sDALAvKH5krih+pP8ofnqUH7JXsvgp47Pvx/OWqfGXIXXfilclN2lT7VW2t+JnTvXb9FnGK5N6rWYuf4G8IXP7wTbUvpB13ovFz3kzfi/3UEk+nPfYypxRkbn+WOb89ql16CKvz3vxqm2YpVdlYN7bP5B515lgfd77593ZLhdrw56jfN0lMp8/nHpuJ8lr/pJkZcrJbIc+7ttW31ef1oZYSG3LzFHxc5zs9voAAOwLih+ZK4of6T+Knx7lh+yVLX7ab2D/Vsbs9Jr+iybr/+k8Pmlzc/N8baq9yniKn23I85+S5XQ6p5bTk0dmG16wDbXnZX33YvFzruxf188c+jq74yFHjx69eBtuaVUB1j5nT5ua/6Kpz6zntGFWRrbHubNf3CJzf17SW/mztrZ2pQx34OxRZzt48OCF8to8eNbzO8jp+Yz84VNOOeU8bbilVe+jzLfz+/skH842+MU2zELyOil+TpDdXh8AgH1B8SNzRfEj/Ufx06P8kL2yxU8dgMtY98yYH5yaw27nXcm92jR7l22g+NmGLGOQ1OX9Zi5/wbxiMBjM/b1xVWV991zxUw4fPnzpzOGNE3PqMi9ObtSGWlqZ4zXzXuvjcmIfz+fMQ9swK6W+99T7O/Ov+/7U/dxmrd+iuf2Jzgirf8/X3Trpq5x8RD5jL9OGW1qZ572Sd0/Mu5Pk9X1z9v0faMMsRPFz4uz2+gAA7AuKH5krih/pP4qfHuWH7JUtfkodTMmYfzc1h91MHQh5Xh0wblPsXba34mcbaj/Ncqqkm7n8BXPWWT9Hjhy5aBtuT8u67snip91L7I8m5tRlPpl98H512cE23NJpxcLh5H0T8+4q78z6364NtXI2NzfPl3W4V9ahDlbPWr+Fks/gu1TB1IY7R3WpvCooZi2jg7why7555nGuNtzSqXshZZ5/mpw5Me8uUmcPvaCr7+X1/yrZVxQ/x8lurw8AwL6g+JG5oviR/qP46VF+yF7p4qcudZMx68yNPi7ZtZ18NOv/y216OyLjKX62oR24fWHS6babyOvq4O2q3MdlEVnXPVn81D6S/ew+U/PqLNk/npXlX29ZD6zX+6vmmLl2fVbLl7LeL61irQ21kgaDwVWyHn88Y/0WTn12bKX4yWt0mXz9n0w/v8Ms9SUJs/1/MHPs415/Vcw+ug2zsLyeip8T58PJz7TFAwDQB8WPzBXFj/QfxU+P8kP2Shc/JePddjwev2bGXHY6X0lel/ncoE1tR2Q8xc82ZT2PZlld37vkWOr+H09LdrW82AlZxz1Z/MSBzOGaSV+Xk/x8snHqqad+axtvaVTpkPdH3T/mvRPz7SqfSH6zDbWyahtlPU7JZ1Hd123Wem472fZbPePn/Pn6utRZXwX22/M5+/2Zy3nbkEujnZH3pKTrs30q76jXoA21sCxL8XPifCH5hbZ4AAD6oPiRuaL4kf6j+OlRfshe+eJnbW3tsuPx+Lczdl/3WthS2sG/Pz906NA3t6ntiIyr+NmmLOcmSRUWVdrNHGfB1BlgD888l/4+GYvIeu7V4qfW7RLJn7c59ZHXL+OB9czp+pnb85I+Plffnc+Y27ShVlre33XGydum1m/hVOmwleKn5Ovr+/g7Jp/fcZ7WPmsPnD3i7qttk230Y5lb59s+qX3+Rflefsk23MIyV8XPFpLt9Ft1JncbAgCAril+ZK4ofqT/KH56lB+0V774qQNAGbd+4/l/J+ax46mDMMk927R2TMZU/GxT9p26lFdtvzrzYuY4HaQOyB7u8iBi1+qMk7zml2r/Obes354tftoZFfdO6rfRZ82zi9SZYdfM/rgUl3zL+6ouH/aYpI+z4eq99k/z3v8q2+YCdb+VZTsonG11i6zPv0ysXyfJ+3HLxU97vX5vehkd5nPJLyzTmWlZ5xtmTlVM9vG+/Fjyq22oTih+tpyzPgvbEAAAdE3xI3NF8SP9R/HTo/yAvfLFT2kHVf52xnx2KnUApNPfEN6qrLfiZwFZ1/qt8Y9OL7/LZIy6+frBZSt/TjnllPNkXvUZsJHt+ZPtr+eW5+/Z4icObGxsXCNzef3E3LpOlSG/mXEuX+OdPezuqGIl+8KDMp+3T8yvy3w474f7t+G2bDAYfFuee0plbW3tSsty76ysy80zpxe1desyd9rqOtZZpvn6u+d16/yScxN5X5b/gKzvBduwu6b2hczldzKnPorJOvvzP7Ke123DdaKWlznvteKnj0tgvja5UxsCAICuKX5krih+pP8ofnqUH7D3SvFzwYw7zPinT81np1IHoDr9DeGtymorfhZQZx5kea9Ier1UYLbpm5MHZ85Lcdm3wWBwsczrrtmOT8ljFV+Pav80tzx3Lxc/x/aRX5iYWx+pswweVge1M+SulD+t9Lln5vHqpI/3wxez/Je1gmsuee4V8/75szy+O3lCcqfah9s/75q8n78/c3lDMmt9t52s63Wy+C3vB5nH1fK8508vp+O8KblvnX3Vht1xrQD8paSPe09VzkgeX2VaG7ITeT33YvHz8sn5dJQzsq3Wu97+AAA0ih+ZK4of6T+Knx7lh+w9UfyU8Xh8mzqoOGNOO5F3DAaDG7ep7Kiss+JnQVneIKkDfjPH6jB1FsWvJdferTMWsp+eP7lp5vCryeuSY5dKUvycg3qt6v2d+fR5H5XKx7Jf/786o2WnL/vWbpRfl8zsq/SpnJbPlge3IeeS5x4rfmo59VnyqmyrX659OX+/K2eh1H6ROdwnc6nSbnpdF8kZR48evXgbZktqGyT3z3PPnFpWp8kYdfbifWt/ybA7WlDW+yLb+1eSKjxmzm/B1Nk+b8o63rwN2Zkscy8WP32c6Vb72NPzuBSf/QAAe47iR+aK4kf6j+KnR/XDdbInip+6jFbGf2TSx3Xnj5fPJk/b3KWbs2d7K34WNDj7t8iraOj1rJ9Ktu1H8vjkPN65HTzdEdk/z5dxb5Rx1/P4nOQTNZ+JKH6Oo90HaXNqjn3k48kf1edoXYqvDd+rOqCeMUtdzq6v90B9Rv1bvdfasHPJcyeLn2OpwqX25VOrANrpM1HqzKWM/bg2l86S1/7ft/PZkOdeM8997vTyeshbkl/K63HlnSgoM8a56/XNuj024/Z5L7+zzvbp43t5ttVeLH6eODmfDvOBbK+1/D/dRdpQAAB0RfEjc0XxI/1H8dOj/IC9Z4qfkrHrMkVdH4A+UT44Ho9/rE1hx2WdFT8dyDJ/POn1Xj8TqbLw1dnOD83jLfu8Yf1gMDh/vSczzkby7IxZxdOsOSl+jqOd9VNnSr11Yo595fN5zeoA/uGMeZW+Dq7XJezyHqpLlf1B8r42dl+py3Deuw09tzx3VvFzLHWm1HPz70fzeNuNjY0Lt6f1pr2v6vtNlSCz5rTtZLl/mHWZ+yymek6e+4As41PTy+whtc2fkjF/os/Pr7yWl8s498t4z06my+ouU4Xnf+T9cP02dKeynfZc8ZN1OjI9pw7zquTui5a5meOVq7Rv/wkAgOJH5oriR/qP4qdH+cF6rxU/V88cnjo1pz7z5fF4/JrDhw9fuk1hx2WdFT8dqIPFWe6Tk2OXPtuJ1L2hXpz8RtbnB2o/6uIScFUU1NkIeR1/rJadvDB/PqfC51gUPyfQzvqpg52fn5hnn6lSuS57dLgOSHdVAA3Ovr/THZLaN16Zfe/TeZw1flep7fXURQqCPP94xc+xfDTrUpf7fFwefzK5eh9nTVXpk9wx49Slrjo/wzTzvud25539pO7189fTy+wxb818H53X5ieqpGnTWEj283MfOXLk27PM+vz6o6Qusdj32Zgfz3hrbQqdy7L3YvHzo9Nz6jB1P7CXZowHZp+e+754a2trl83zT85y/iqPN2h/DQCA4kfmiuJH+o/ip0f5oXhPFT+bm5vnzRzqfi11uaRZ8+s6n0we1obfFdneip+OZHk3zLLfltS9HmaO21PqhtavyeOTs16/mMd71IHC7M/na1M7oTqoXvPP8+sshIckf5VlvDn/vdWD+oqfEzswGAy+M/N64cQ8dyIfTOqSZnUpy3tnDt81z2+xV5mYfeFS2T9ukcefTn43y6nfqO/zDIpjqffSu7IfLvR9IcvYSvFzLFXevi1j/n3y8Pz5XvVZsWipWmXM2tratTKP9Sy3CqbOS5/kg3l9r5rhtnX/nLopfuZ3tyznPVPL7TNV7NWZcH+Z7fIrebxr1qHOVNvy51eb95Xz3DtkGePkKflznU21EyXr5zLe32b8S7XpdC7L3nPFT8a/wvScOk69v6pYrDPgfqztU+d4Gb66PGJ9xuU5pX6J443JV/K8uX9OBQDYsxQ/MlcUP9J/FD89yg/Fe6r4KRn/tkkdlJs1v67z3joI24beFVlXxU+HstyfzfKr0Js57g6kSsv/yjzqUl9PSuoeIqcmo7wud0t+6FjyNferbZs8PP9dB8Wfn8e6+XpdVmvWso8Xxc8WbG5uXiDbuM5E6PNeI+eUOghehcZzk7rMVhU4tV+s5b9PzuPX9o2kfhu//FLyhKR+8/2leXx38rlk1vL7SL3vDx3vgO1WZBnzFD9fS9a5is8qJZ6ZP/9OHg9lOXfJ4zWTS7TFz1RzztdeOblZvrYuBfmbSV1y7APJzPE6yB/VJfjaFLYln4uXyXIeluzUmWmTqc/OulfUPyR1D5gqK2sf/fnka/tn/uquyX3r3+JXkyfm9anvZa9Oqujs/X5rLV9OqmC6ddt8vcg677niJ++Pc2X8nfgc/Gy2X31fq33qMflzXdLxPnm8S9uXfir5heRP8/f1Gfeh5Gu/vKH4AQCYoPiRuaL4kf6j+OlRfijec8VPfsi/WObw6Mylj9/GnkwdPH3aTt2A/ZxkXRU/HaozKbLsuon4Tp/1c075Ql6PukxbHQz9z6Ter8dSl0Cqg1xnJrOeO08UP1t06NChS+Y12cz8drJAmZU6aF37xfuT+u32yX3jTUn9WxWJfX8WnlPqck1/XL+J3zbdtmVZ2yp+plJnAtW9jKqYqDOo6pJoVa7+SVLlauUXMuf6/vGkjPcXefyn/HcdTK5yoG7+P2u5XaXu/XWHRb+n1AH5zP26WdYzJpa9G6nP0Fqn2g9ru0/un29I6vOr/m0nzjw7p9TYP9X39/F6PbIf7cXiZycvK1ip/anuxff2pPah2pfe1f5uZlmo+AEAmKD4kbmi+JH+o/jpUX4o3nPFTxmPxz+RudRBpVlz7CofS+7Rhtw12d6Kn45l/eu3/F8ya9w9HMXP1h3Y2Ni4RvbBuhzVrLnL2Qf9n5/36NXaNltIltVF8XNOqbl+uJIxqmTt9LNqq8nYz2r3ydnWZd4m1aXTsn/+QJZZl5CcOZ6cVSI8YtEzrLYir8OeK37iQNarzn6cOb9lieIHAGCC4kfmiuJH+o/ip0f5oXhPFj9VCGQufzU1ty5Tv2n/hjq7qA25a7K9FT89yGt704xRB9Zmjr8Ho/iZQ10GrA4oZo51g/9Z89/veWfen7dqm2thWV6fxc8y5LTkrlXYtFVeWJZ1kWyzn85y6/J+s8bcz6nvmc/c2Ni4fNtcvdqjxc9Jhw8fvnTmUGfbzJzjMkTxAwAwQfEjc0XxI/1H8dOj/FC8J4ufumxL5nI4qcvIzJrnQsk61n0jfrUNt6syF8VPPw5knLoPxU7eJH03o/iZ0+bm5gUyx3skdZm1WeuwX/PufIbcucvLZ2WZe734eURdQjCruvDZPpPyGVn3+3lIUmeozhp3P+bL2ZeeNdjB+/Pt1eKn3uNZt7ok4sw5LkMUPwAAExQ/MlcUP9J/FD89yg/Fe7L4KePx+OaZzwun5tdVPpr1vHobaldlHoqfntRv32db1I3g90P5o/jZhrpMVPbF+2Suyp+z03npU7LcvVz8vLhKiJNPPvmb2up2pu7Dkn302zPGwxLlz9mX9Xt2tvd3tk20I7Lv7snip/avfB++xfTclimKHwCACYofmSuKH+k/ip8e5YfivVz8XDDzeUTmU2fnzJrrdlM3CP/Lzc3Nc7ehdlXWT/HTo7zO58tYP5wx93r5o/jZprqkVuZ632S/lz/vznvlB/KeOW/bNJ3Jsvdq8fO/yZ362GbH1MF55c/X8pzkmm3T7Ji9WvyU9vm3tJe8VPwAAExQ/MhcUfxI/1H89Cg/FO/Z4qdkPnUZpv+amF8XOTP58TbErsv2Vvz0bJ+UP4qfBUyUP29q899vOav0qbPk2ibpVJa/F4uf/802u9/Bgwcv1FazN1X+ZKwrJP8v4+7L8ifr/tyNjY1rtE2yo/Zy8VNnqmUut026/iWbTqL4AQCYoPiRuaL4kf6j+OlRfije08VP5nKF8Xj89Bnz3G7qMjFvqcs7tSF2XdZR8bMDBoPB+TPmD2TsV0/PZY9E8bOgjY2NC+e9c5fkJVPrstdTv+1/+ypI26boXJa/14qfs0qf9r2k0/v6HMeB7KOXz3Zcz/hvn5rPXs8Tsr137fKs2eZ7tvgprfj+vcn5LUsUPwAAExQ/MlcUP9J/FD89yg/Fe7r4qd9EzZwGyQcm5rhIvpD1e3hb/FLIfBQ/O6TOZsjYN8r26bJMXJYofjrQCsLvztz/Mvl8W5c9m6zrH+f9cJ0+L1VWMtZeKn52o/Q55sDa2tq3ZPyTM49XTc1rL+bM7DdrGxsbl6t1P3sT7LzMYU8XP3VGWZ1Nlfm8YnKOyxDFDwDABMWPzBXFj/QfxU+P8kPxni5+Ss1n3NFv4GdZn66DnG3RSyFzUvzsoCoTB4PBVTKHX0g+OjmnFY/ipyOnnHLKedo9VR6SvL+tz55KPiM+kvfgz9UZJHXQt616bzLmXil+/jP58V0qfb6mCsrkxpnLk5O6fOmsua563pDcvs5GySrv2rYu2Xf3dPFT8jlw7szptpnTuybnudtR/AAATFD8yFxR/Ej/Ufz0KD8U7/nip52l8ajMa9Hrz385eWYd3GiLXgpZL8XPDqsD3fVb85nHHbKt/nl6bisaxU+3DtTB/ewfd8t6vDjZM2f/ZJ2envffbevSdrWeZ69uvzLuyhc/7TPrFlW6ZJV2tYgo9b2sXfptLfN72/R8VzhVZD2izkCpErat7q7KNt7zxU+pfTvzqrPJlqZMVPwAAExQ/MhcUfxI/1H89Cg/FO/54qdkTj+YuS26nl/Mcu7ZFrk0MifFzy6pg4qDweAq2V5HM6f3Ts9xhfKh5HBbrbnluYqfc1DFc/bVK2Rdyn8ns9Z1JZL9/M15vPfa2tpld/qAesZd5eLnnZn7keTKy/aLA3Eg87pg5liXsPz9PK76WYz/UAf6q5ivdTt7FXdftu2+KH5K9vEL5DW4Y+a2FGf+KH4AACYofmSuKH6k/yh+epQfivdF8VO/eZ+5PW1qrvPmnXUQty1yaWR7K352UZ39Uwe6Mp/rZV6PTz42Oc9lTl7nj9TB3uRmtQ5tleaWZSl+ju/AYDA4f/bXq2Wdfil5d1vHVclb6z1c77f2GbjjB9Qz9mUyh9/JXFbpzKnTkyfltb9pvb/qs6KtztKpS1jWGVyZ7y2TP01OS2at07LmRfkcu0tyqWznZSvX9lXxU+pzIut8m8xv1+/5o/gBAJig+JG5oviR/qP46VF+KN4XxU8cyLx+NvN7z9R858mvtWUtlayX4mcJ1EHdOribeVUB9MjkHZPzXbK8N/N8+LED0nXQt63GtmR5ip+tOZDtfb7ab9t74o1Jp+/djvOKzPMByRV2q/A5pt5f+Vy6YOZS9xB5QrLIZ3nf+UTy55lr3V/ugou+v3ZSzbVt5+/JOjwqqbMBZ63jridzrMu3/lU+x+6Y/fOS2UeWrvA5Jtt0XxU/pfaldq+zX22v1cz16DuKHwCACYofmSuKH+k/ip8e5Yfi/VL81LXnvzPze9HUfLear+T5V22LWirZ3oqfJVIHqJPz1r0zMsf7Za4vTD47OfddypmZz3PzeK92kPS8Ndc27YVkmYqf+RyoS6Vl+1dRWJehfFKyLGeKVRn1G/kMuHmdKZk51sH0pblkVh1MrhIqc7xEtt0PZJ51ebIqWb+QzFqfncwbM58ja2tr18p2O19X76/dUHOv7Xz48OFLZzs/IOtW96lahs+xz2QbvyRzGtb35NrOq1CsZc77rvhpquyuz7nvTp6S7HQB9G/Z9lducwEAQPEjc0XxI/1H8dOj/EBcv9n73fnh+PZdJMs762BhW/yyqcstfdeseZ8oed5N6/lnL2a55PW7Xrb7982a93ZTB6myznUD8k5kmXV/ju+dHmeR1HrXAaU2xFKqg6d1gL+VQHXw9JnJh5NZB6i6Th0If1NSZ0fcPa/nxVrZ0PnB6EOHDl0kY9Qloma+VtvMTerzqQ2xZ9XrkZy7Xp+s892zzr+bx3rddqrI+GT2zZdm3IcmNz948OCF2oH0pfy8m3Rs2yXnzTpcPfO/f1L3Aaqzgb40sY59pW5g/8qkzmj47nofrMq2m0dt5/rsWFtbu1LW80FZ37psan2OfSWZtV26zgcy7t/mtX3w+vr61Wouq7ad632V+d8s6zLrs25byba4Vb63XK4NsezOutxltsF1M/eHJK9LZr3WXeSVGafuu3ft+myosc+eAgAAih+ZL4of6T+KH2DPqINfdUBqPB4/cDgc/mEeX5L/roOodaC/ztw6ljpwPSuTX1Op59Vv4j8/+avk1Ixxx+Tb2pCsoHr96nWs17O9rq9OPpdM7yeVre4nH2772x9k3/vZ/Pnmp5566re2IfeUtbW1y9b6ZT3LU7LOz0s+1bbD5HaZte0qk19Tzzkj+c/kaVnug/N46+QSbbj9qA7k11m090rqvlX1+fPfSW2r7W7jynvyev1tHusyc/fd2Ni4xubm5vnamOwRVcjk9b1m8jN5P1VZ+9Zket853j5z1tfmuW/OY/1CxcPq89K+AgBwAoofmSuKH+k/ih9gz9ts9weq3+Ku5M/3G4/HR0aj0S9MJn9/u2Nfk3+/bns6+8ix1z/7w62zD9xteh/J363l8U4TX7dXL5m3La2wuGXbNveubTaRKtp+amLb3ajO1mhP5cQOHD169OLHtl8+r26b/fH+E9v3rOTvf3bia+oyYFdoz2efqksLZj+4etsvvj9/rrPLJveZn8y+9L3171WM53vm0t7TCQBgaSl+ZK4ofqT/KH4AAAAAALZL8SNzRfEj/UfxAwAAAACwXYofmSuKH+k/ih8AAAAAgO1S/MhcUfxI/1H8AAAAAABsl+JH5oriR/qP4gcAAAAAYLsUPzJXFD/SfxQ/AAAAAADbpfiRuaL4kf6j+AEAAAAA2C7Fj8wVxY/0H8UPAAAAAMB2KX5krih+pP8ofgAAAAAAtkvxI3NF8SP9R/EDAAAAALBdih+ZK4of6T+KHwAAAACA7VL8yFxR/Ej/UfwAAAAAAGzXh77/0hc8425XeeMZd73Kh0VOnCv//SfvfpWbtN1nyzafd9L3J6/8leed9GGR4yX7yXuTx7RdBwAAAACAeXz1lBud54y7XPmnzrjrVY6KnCifust33PNTJ1/1km332bLNZ590+Yc8/6SffshzTzoqcrxsPv+k8eZzT7p123UAAAAAAAAAAAAAAAAAAAAAAAAAAAAAAAAAAAAAAAAAAAAAAAAAAAAAAAAAAAAAAAAAAAAAAAAAAAAAAAAAAAAAAAAAAAAAAAAAAAAAAAAAAAAAAAAAAAAAALbjSe8+30lPPu2vTvqL058pcsI8+bTfPOnPT7tO23u27KvPPel7vvqck/4oj88UOUH+Nllvuw4AAAAAAHN5+kcudNKTT/9E8lWRLeRlJz319P+v7T1b9tXnnPQjX33uSe9Mvipygnw++au26wAAAAAAMBfFj8wXxY/0HcUPAAAAAMC2KX5kvih+pO8ofgAAAAAAtk3xI/NF8SN9R/EDAAAAALBtih+ZL4of6TuKHwAAAACAbVP8yHxR/EjfUfwAAAAAAGyb4kfmi+JH+o7iBwAAAABg2xQ/Ml8UP9J3FD8AAAAAANum+JH5oviRvqP4AQAAAADYNsWPzBfFj/QdxQ8AAAAAwLYpfmS+KH6k7yh+AAAAAAC2TfEj80XxI31H8QMAAAAAsG2KH5kvih/pO4ofAAAAAIBtU/zIfFH8SN9R/AAAAAAAbJviR+aL4kf6juJn/zqwubl5gUOHDl2kr2T556txzh4OAAAAAPYixY/MF8WP9B3Fzz51+PDhS49Go99LXt5XxuPxkUOHDl2yDQkAAAAAe5DiR+aL4kf6juJnHzr55JO/aX19/Vaj0eirPec9yU0ypLN+AAAAANijFD8yXxQ/0ncUP/vQkSNHLjocDv/fVEnTSzLO/eqScm1oAAAAANhjFD8yXxQ/0ncUP/vPgfF4fOXRaPSu6ZKmp/xTjdfGBgAAAIA9RvEj80XxI31H8bPPbG5unnc0Gt11qpzpMx9LblmXl2tTAAAAAIA9RPEj80XxI31H8bPPDAaDi41Go2dMFDO9ZzweP7TGbVMAAAAAgD1E8SPzRfEjfUfxs49sbm6eazQaXXs8Hn9kupzpOS9fX1+/WqZw4OyZAAAAAMBeofiR+aL4kb6j+NlHBoPB+Uej0cZUKbMjGY/HP1SXmWtTAQAAAIA9QvEj80XxI31H8bOPjEajSwyHw5dOlzI7lN87dOjQJdtUAAAAAGCPUPzIfFH8SN9R/OwTJ5988jetr6/fYkYhs1P53/F4fJ1MxeXeAAAAANhDFD8yXxQ/0ncUP/vE5ubm+YbD4aNnFDI7lvF4/MDM4wJtSgAAAACwByh+ZL4ofqTvKH72ibW1tcuORqP3TZcxO5znra+vX6ZNCQAAAAD2AMWPzBfFj/Qdxc8+UJd5Gw6HJ88oYnY6p9fl5mo+bWoAAAAAsOIUPzJfFD/SdxQ/+8ChQ4e+eTQaPX+qhNmVjMfjX9/Y2LhwmxoAAAAArDjFj8wXxY/0HcXP3ndgNBpdO/nsZAGzi3n9cDi8Qs3r7OkBAAAAwCpT/Mh8UfxI31H87HGbm5vnGo/HmzMKmF1L5nPnU0455TxtigAAAACwwhQ/Ml8UP9J3FD973Hg8vuBoNHrLdPmym8mc/uzQoUMXaVMEAAAAgBWm+JH5oviRvqP42ePG4/H3zipfdjOZ00cGg8F31tlIbZoAAAAAsKIUPzJfFD/SdxQ/e9xoNPrz6eJlGTIej9cOHTr0zW2aAAAAALCiFD8yXxQ/0ncUP3vY2traZUej0YemS5clyas2NjYu3KYKAAAAACtK8SPzRfEjfUfxs4eNx+MHjkajr0wVLsuSz6+vr9/C5d4AAAAAWG2KH5kvih/pO4qfPWw4HL50RuGyTHnM5ubmedt0AQAAAGAFKX5kvih+pO8ofvao8Xh83dFo9KmpomXZ8t6jR49evE0ZAAAAAFaQ4kfmi+JH+o7iZ48ajUYPS744UbIsmtcl/zr1dwtnOBye7HJvAAAAAKwuxY/MF8WP9B3Fzx60ubl5gdFo9Nakq/v7nJE8ItlITm9/11X+MfM9d5s6AAAAAKwYxY/MF8WP9B3Fzx40Ho/vPBwOPz2jZNluXpvl/UCW+735879N/dui+eT6+vrV2tQBAAAAYMUofmS+KH6k7yh+9qDhcPiUUbeXeXvqeDy+1MbGxuXy+Psz/n3RbLSpAwAAAMCKUfzIfFH8SN9R/Owxo9Hoisl7k64u8/bh8Xi8XvfhqUuy5c9r+bvTpr5moWSZb27TBwAAAIAVo/iR+aL4kb6j+NljxuPxz49GozOny5UF8qos8/va4mv5fVzu7YvD4fB72hAAAAAAsEIUPzJfFD/SdxQ/e8xwOHzZaDT60lSxskiellyiLf6kwWBwsfz34yf+vZOMx+PfbUMAAAAAwApR/Mh8UfxI31H87CHD4fC7R6PRh6dLlQXyvvF4/OC6zFsb4qT6c/7ugfm3upzcrOdsNx8+ePDghdowAAAAALAiFD8yXxQ/0ncUP3vIeDz+reFw+OkZpcq2UmcPZZk3b4v/mlYwPX/66xfMFzPWT7QhAAAAAGBFKH5kvih+pO8ofvaIw4cPX3o0Gr0l+cpEmbJIvpg8cXNz83xtiK85cuTIRfNvT5j42i7y5fF4/M9tCAAAAABYEYofmS+KH+k7ip89Yjwe/+hoNPrYVJmySN6bZf58W/y0A/n3nxoOh/8z9ZxFc/rGxsY12hgAJ51yyinnyWfNFfJ5dLM83i6fE/dNDue/75/H29ffr62tXWlzc/O87SlL5dChQxfJPK/dPqMPZx1+Jfnj/Pmps5J/e2wyzp9rHW8zGAy+M+t27rY4AAAAlpLiR+aL4kf6juJnjxiNRv+UfCGZVahsJy8fDoff3Rb/DdbX16+fr3n21HMWzeeTX2pDAPvQoUOHvrk+X8bj8Xo+D/4ueUfywfz3R/L40eT05JPt8WPt7z+YvDF5Rv577ciRI9/eFrfj6uzLzOFumcsjk5cn708+lJyW1Lw/lXw2+dys5HO3Ltd5RlJfW+tbz31f8oJWCt1zY2Pj8m04AAAAloLiR+aL4kf6juJnDxgMBlcdjUbvTGaVKdvJZ5LfO95vmde/5Wt+M6myZtYytpO6TN1b2hBL7+jRoxcfj8f/nDl/WL4xa2tr12qbaqY6QyNf94/Tz+sgv5mxL9uGWQrD4fCHM69XT81z4eS9f/42xEKyrDskr5xc9qLJe+NZGxsbF25DnFDW5WJ53uGktlOVJGcmVWZv9fKVX07q6+t592iL3RF5fa+QDNvnQZU0VdrU5+iXkllz3U7q8ptVGB0rhJ6XIR+Q7fZtbRoAAADsGsWPzBfFj/Qdxc8eMBqNHpJ8Ipl1sHA7eWcdUGyLP0f5mp/M175t6rmL5oz6bfk2xFI7dOjQJTPfOlg+az32fQaDwXe1TTVTndmRfehls567SLL//O6yHQzPep6cuXVZzp6Vzc3NC7QhFpL5VTFVZ9bMHGebeXld5qwNcY7qa/KareXr67Okio0qcGYtb8vJ8n6sLb432fbny1i3zFh/kcc6K6fmXkVPV/dZO1FqrCqX6qynp9dr2KYGAADAjlP8yHxR/EjfUfzsAe3geZe/Wf6iwWBwlbb4czQej6+b1G+4z1rGdvP5rM8ftyGWmuLn+FH8/J+sp+JnSrt3T92z5z+Sec7sOWGyD/RW/NR+mzFumTwzOVb2zJzHDqbmcGa9n7Lud25TBQAAYMcofmS+KH6k7yh+VtxwOPzB0dmXFpp1MHA7+cx4PP79LPrA2SMc14F87W/lOV1e7q3yoVW4h4Xi5/hR/PyfrKfiZ0Jen/Pn3+uybnWfns7PkOmj+Dn55JO/qS5fmOU/NdnJM3vmSc2pCqC/X19fv2GmvZXPcQAAABam+JH5oviRvqP4WW0HRqPRY5K6Efisg4DbyVvrIHVb/gnl6++e/OfE87tIrc8pbYilpfg5fhQ//0fx83/qvj8Z79Ezvr6zdFz8HDj11FO/Ncusy9F9anqsJc4Hsp3HNfdah7NXBQAAgH4ofmS+KH6k7yh+VlidFTMajd44dbBvkdRviz+vCo02xAllDpfLc/66PXfWMreT+m36V2xubp6rDbOUFD/Hj+Ln/yh+zlalT/6+Pi9mfX1n6ar4aZeju16W+eLpMVYkn0v+Kbl2nbHUVgsAAIDOKX5kvih+pO8oflbYcDi8z2g0en87wNdFPjEej3+7LX7L8rxfSz45sZwu8sH19fXrtyGWkuLn+FH8/B/Fz0knZa7ny9/96tTX9JIuip+DBw9eKMuqMxpX6SyfWfli8qq8xj+Y1+C8bfUAAADolOJH5oviR/qO4mdFbW5unnt09s3F66bosw72zZ3xePzmPN6pDbFled7d8rxOL/c2HA4/ncfHtCGWkuLn+FH8/J/9XvzU2SZ5XR4442t6yaLFT5ZxiWyTX5xe7iqnPt9ru3S1zwAAADBJ8SPzRfEjfUfxs6KGZ19+6E3TB/cWyJeT5yeXaENs2dra2mXzvGckXV7urebzhmU+SKn4OW7qPk3XbptqJsXP4lmV4md9ff2G+e+uzwo8xyxS/GSul8nz/2LWcvdA3psMst+cr60uAAAAnVD8yHxR/EjfUfysqPF4/NDRaPTxiQN6i+Zjya+2xc+tzee0ieUtnCzzI8lPtCGWjuLnHFP3FfnNo0ePXrxtqpkUP4tnFYqfvB4X7ON1Pl4y5raKnyp9Mte/n7XMPZT/zPb5UeUPAABAlxQ/Ml8UP9J3FD8rqN174gXJlyYO5i2aNya3bEPMLc+9ddJ1CfKZ5Embm5vnbsMsFcXPzNSZWs8ej8dXbpvpHCl+Fs+KFD91ibe6z8ysr+kl2yl+NjY2Lpft8LezlrfXku3zmuTOp5xyynna6gMAALAQxY/MF8WP9B3FzwoanX3D8f+ePJC3YL40Ho//eTAYnL8NMbe1tbVvyXKeVsuaWG4X+e/hcHj1NsxSUfzMzNvzen133dOlbaZzpPhZPMte/ORz4Up5rOV2eRnIE2be4ifPuUSe8zd53NF57nKek9f9BtmHztU2AwAAANum+JH5oviRvqP4WTH1G9rD4fDRo9HoE1MH8RbJh8fj8ZE2xLZlOb9Qy5pYbhf5aOb24DbEUlH8fEPq0oP3zet1wbaJjkvxs3iWvfhJHpLUpf9m/XtvyT6w5eKnlda/kXxhchn7ILW+T1q29woAAMBqUvzIfFH8SN9R/KyYwWBw1dFo9KqJg3eLpn7D/Y3D4fB72hDbluXcMnl1W25XqUtEvWiRs5H6ovj5unw2edw8B5EVP4tnyYufNyRvT+ryf7P+vbdstfip7ZevP5TUZSVnLqvH1HY5M6kSv1IF2U6fcfT+vPbDrvYjAACA/UvxI/NF8SN9R/GzYkaj0U8Nh8P/mTp4t0g+Nx6P/6aLYuXIkSMXzdyekmV+fmqMRfPO9fX1W7Vhlobi52upy/u9IPvRddqm2RLFz+JZ5uIny/x0Hnfl0mlbKX6y7c6dr7tbvv4DyU7M88xsk/rs/o/kXzL2s/L4B3n87Ur+/Jf59+fmsc6U+q/kfUnvZ0tlzJcmt832cMk3AACAbVP8yHxR/EjfUfyskCpnRmffR6fLYuWDycE2xMKGw+GDsrz3TCy/i3wyeUwbYmkofr6Wt43H4ztvbm6et22aLVH8LJ5lLn52M9kHTlj85Guum7wmX9/1fckmU2f1fDSpMyGr5HlgHm+ysbFx4TaNb1D7br7m1snBfP1f5LX59zx+JP/dVzlVl3x7wvr6+mXaFAAAAJib4kfmi+JH+o7iZ4WMx+Ob10HAqYN2i6QOJP7XYDD4zjbEwtbX16+fZb5iYowuUgdPX3H48OFLt2GWQt0bJK/HHyYvW+Zk21U5dVrbll3nY9kv1/N4ibZZtkzxs3gUP7OTfeC4xc+pp576rfm6P0n6vMTbx7NdX5rHX63Pxbo/Wxt+LlnG92QZda+keh/3dQbQf9Y+ut05AgAAoPiR+aL4kb6j+FkR7bJEDx2d/dvjsw7cbSd1mbentyE6UQfzs8y/qGVPjbVo3jccDu/ThlkKJ5988jdlXa9cxdkS57syxx/N9uvjoH69xn+SMa7aNslcFD+LZw8WP1/JXOoScXXW4OuSF0+lLoP2n8l/Jx9L6myVb1hO9oHjFj/59zrzpp7/Dc/tIHVG5luTR66vr9+wqzIly7pFlvmnyceTWeMuktqOf7S2tnalNhwAAABzUfzIfFH8SN9R/KyII0eOfPtoNHp20uVliT44HA7v14boTJb5oKTL+xBV6iboT9zc3DxfG4YTO1BnSWW7/d7Eduwy/5rcugqwNt5cFD+LZw8VP19Mqux5TvKYzOdn19fXv39tbe1ak8nretO8vj+U3D/ZTKpkrjMM65KVXyuB8vfnWPxkuVfL8uvMyT4u8XZG8oLk3nVWURuyM/V6Z9m/kfRxBt9bs91+dLvvZwAAgP1N8SPzRfEjfUfxsyLqQOZoNHrb1IG6RfLlOvi53sN9HeoAbZZdB/S7vidF3fD8Rm0YTqCKlWyvQfLZtv26zLvyGv/kIsWD4mfx7IHipy7j+L/JX2cOP5tcvU1pS44cOXLRPPfWec3rcoN/ndSZQHUm48zip86+yb/9dr6mCppZ81kktcxnZN/7//K6zHW/q3nUa57t9PCM1XX584Us99HLdklNAACA1aD4kfmi+JG+o/hZAZubm+cbjUaPTz41cZBuoQzPvpzSn7QhOlcH37P8zuZbyTI/knn/YhuC46jf2q8zJrLdPjC9HTtI3ddnc9HSUPGzeFa8+KkzdF6e1+vBebxim8q2ZTlXzno8II9PT76v/fXXyT5bl0t7S9J1KX1W6VPLb0P16uDBgxfKOlaBVZeVmzWfbSXLfE19brRhAAAA2DLFj8wXxY/0HcXPChgOh9dL6ibhMw/WbTN1aaR7tCE6l2XfK3lXG6ur1OWg6nJ3l2jDMNuB9fX178g+03mpktRr8NTk2m2sbVP8LJ4VLn6qsPi75A5tCp3JMq+ZfeBS7T+/Jn93wfzbn2ddq/SeNaftZkdLn2PW1tYum3X656m5LJrPZJnref+cvw0DAADAlih+ZL4ofqTvKH5WwGg0OpS8b+Lg3KKpyyv9x6yDo11ZW1u7UjuoX2PNmsN2U/eh+KE2DDNUGZDt9ISp7dZVXp3coYv7gCh+Fs+KFj9fyGv0Nxnzem34HZExb5Ox61Jws+a03VSB9eK6vFsbZsfktT9XW6f3T8ynizw5r81cl9wDAABA8SPzRfEjfUfxs+SOHj168ToQl3R5SZ8zk8e0IXpTB+AzTqeXe0s+kTym7tXRhmHKcDh8ULZRL/f1SX7m0KFDF2lDLUTxs3hWsPj5UvLXeY2u24beEdlO5824dbnMru/t89/Zdvep5behdlTGrcuAPmpqTgslr82bs04/2IYAAABgSxQ/Ml8UP9J3FD9LbjQa3X48Hr9m+uDcgvng+vr6rdoQvck490i6vtxbnUH0LxsbG9dowzAh2+bWyXvatuoyn8p++NvZ7pdvQy1M8bN4Vqz4qfvqvCqvzXe1YXdMxr128tqkyzMQq4R+wqmnnvqtbZgdl9f/XPksv2Hm8cmJeS2az2R/GOZ1crk3AACALVP8yHxR/EjfUfwssTqrZTgc/spoNPrY1IG5RVK/cf/qjY2NC7dhenP48OFLZ6wXtTFnzWW7ec94PP7pNgxNXV4v26a296xttkjqvj7/lNykDdUJxc/iWbHi52N5be7WhtxRGbt8KJk1r+2kCqRXZ31u1obYNXnff0vm0un7PvvDH9bnSRsCAACAE1L8yHxR/EjfUfwssXaD/r8fdftb6nWZt99oQ/QuYz0iOb2N3VXqMmZ/fvDgwQu1Yfa9dsmnxyRd31OpDgL/ex2wr6KmDdcJxc/iWaXiJ6/L73e9D21FldwZ/x+TL0zOZ8F8PNvs/y3DJSfrvZ9t++AZc9x2sryXZP2+pw0BAADACSl+ZL4ofqTvKH6W2Gg0+vHkLZMH5DrIh+vSQG2I3mW82ydd31C9Dky+xoHJ/5Pt8cBsl49Ob6cO8oEs+0gfl7NS/CyeFSp+Tkuu3YbbURm3PoO6/Bz9cvv8uV4bYldlHzhX5nPdzOtzU/PcdrJu/5PHu7YhAAAAOCHFj8wXxY/0HcXPkhqPxxccDoePTj49fVBugdQlu563uYM3Ij9y5MhFM+aLk64v9/bhbJtfbMPsa9kWt0zemHR9ts+nso3/OLl6G6pTip/Fs0LFz+9lmANnj7azsj/8esb/+NR8FkndT+fxy3C2zzHtsppvm5jjoqkS6ZTsX+duQwAAAHBcih+ZL4of6TuKnyU1GAxuPBqNXjBxIK6L1GXeBm2IHZMxfy2p3/ifNaft5ovD4fDv19bWLtuG2Zc2NjYul23xnNoeE9umq7xofX39VieffPI3teE6pfhZPCtS/Hwmr8d3tqF2VPaxi2T8f0i6vMzbu7KP/VAbYinUGXmZ11On5rlQso6bfZzpBwAAsDcpfmS+KH6k7yh+ltR4PP750Wj0v9MH4xZM/db7NdsQOyZj3iTp/HJvyRuznXblZvHLYDAYnH84HD462+EzU9uli7w1y35AjdGG65ziZ/GsQvGT1+Mlu3V2TMa/Udbt36fntECqYH1h9q+LtSGWQt3vLOv5K1NzXTRPrPvMtSEAAAA4LsWPzBfFj/Qdxc8Sapft+ZOky7M46lJrz9uNA7BVHmTsOiuly9+6r3xyPB7/dhUIbah9Jet/3+T9yVfa9ugk2aYfyePDsl0v2YbqheJn8azIGT+jvs4aO5HsC/fP8O+emMuiqcu8PaotfmlkPzhf1rXu8zVrztvN32WZ121DAAAAcFyKH5kvih/pO4qfJTQaje6QvGriAFwX+cx4PP7pNsSOGw6H48yhy/tsVOqeNs/Pel2nDbNvZJ1vlrwm69/1Jd4+m/xlXq9e7uszSfGzeFah+FlfX79ahtiV+/tkveqMuCprZs5tG3lvcve2+KVR76Xs9z8xNdeFkm3371nmbdoQAAAAHJfiR+aL4kf6juJnyWxubp53OBz+4qj7e+J8sO8zOI5nMBh8V+bQ5W/eH0st85Q2zL6wsbFx+azzXydV0szaJovkVePx+Pt24gwNxc/iWfbiJ6/Fm5MLtmF2VJ0Fk/X6+8yjznacOb9t5I3Ltm+Ver9mbrecmuuieVvW9Y5tCAAAAI5L8SPzRfEjfUfxs2Q2NjauMTr7oH6dzTLrYNx28qXxePz0NsSuaAf56yDs56fmtmhqeX+S5V+kDbWnDc6+r8/Ds8519lSnl3hL6qb1P99VmXAiip/FswJn/Dy5Cpg2zI6q+9NkvV46Y07bTX3W/ONuXbbuRLKuV5+a76I5rfbbtngAAACOS/Ej80XxI31H8bNkxuPxj41Go7dOHYBbNHXA8t5tiF2TOfxU8rE2py7z8uTWbZg9Lev540kdoO+yGKycPhwOH5vHS7Sheqf4WTwrcMbPkczxvG2YHZWxvy9zeMP0nBZIXVbxLfU+WcZkbn86Mdcu8uUs9z5tcwIAAHBcih+ZL4of6TuKnyVy8ODBC41Go0ckXZ8V89FTTz31W9swu6Zdouw9U3PrIh8dj8dH2zB71vr6+vWzrv+afGFi3btIHdB+Xrbhjt4rSfGzeJa9+Kn1zhzP3YbZURn/HkmXJXqdYVfvvbpn0DLmU8mseS+S+7bNCQAAwHEpfmS+KH6k7yh+lsj6+vqtRqPRi6cOvC2aOlj5J22IXdXuQ/HU5HNtbl2lzn552nA4vEIbas85evToxbN+T0k+PbXuXeS/xuPxD+30AXrFz+JZ9uInr8N3ZvEHzh5lZ1UZnDl8aHpOMlcUPwAAAFui+JH5oviRvqP4WSLD4fBnR6PRh6cOvC2aurH50lwGLXO5b3Jam1uX+c/k7m2YPSfr9mvJR5Ou7+vz/mRjMBicvw21YxQ/i2fZi5+8FpdqQ+y4jP3QzKGPS0vum2S/eNApp5xynrZJAQAAOEeKH5kvih/pO4qfJbG2tnal0Wj0pKTre7e8tw6wt2F23fr6+mUyp7cnXRcYZya/uUzr2pXx2fd9ekvS6b4xPPvsoSdn37tsG2pHKX4Wz7IXP3WmWhtix2X8Oruwiu+Zc5MtpQrnHbvvFwAAwOpS/Mh8UfxI31H8LInRaHSH5NXtYFuXqfu3vGuJUvf46foeNZUqkp49HA6v1zbpnrCxsXGNrNcLk3odZ633dlMHxP9tfX39hhlmVy7FpfhZPEte/LzuyJEjF21D7LiM/4yp+cj8+Y3dPGsLAABgdSh+ZL4ofqTvKH6WwObm5nlHo9EvJX0UIvspHxiPxz/fNuvKq4P6WacnJp+ZWMeuUiXEPTLGrtx4vyh+Fs+SFz8vz2t8kTbEjsv4ip/Fo/gBAADYEsWPzBfFj/Qdxc8SGI1G10z+auJgm2wvXx6Px7+/m2cZdCnrciTr9IGpdewin8iyf7sKxzbUrlD8LB7Fz2ytNP2HqfnI/FH8AAAAbIniR+aL4kf6juJnCYxGo3sl75s42Cbbz6sHg8Ed26ZdWe1A/OuTru+F9IXxePzPu3nvlWMUP4tH8TNbxr5m9oOXTM1H5o/iBwAAYEsUPzJfFD/SdxQ/u2xjY+PCo7NvoN31Af79mjqbZb1t3pXU7uvznKSPfeJtg8HgO9tQu0rxs3gUP7Nl7Gsn/zIxF9leFD8AAABboviR+aL4kb6j+Nll6+vrtxoOhy+dccBNtpnxePw3ebxm28QrJXO/YPaHx2b+Z06uUxfJsj+Sx59pQ+06xc/iUfzMlrEVP91E8QMAALAlih+ZL4of6TuKn911YDgcPmA0Gp0+dbBNFssbs11/pG3jlbG5uXmuzP1Q8t6Jdekk2R6fzuMftaGWguJn8Sh+ZsvYip9uovgBAADYEsWPzBfFj/Qdxc8uGgwGVxmNRk+cOtAmHWQ8Hv9WVwfFd0Irfe6QvGpyPTrKl5JX1mUF23BLQfGzeBQ/s62trV0r4yt+Fo/iBwAAYEsUPzJfFD/SdxQ/u2g0Gt1+OBz++9SBNukg4/H4WXm8UdvUy+5AKwGfMbkOHaXuE/TeLH/u7yV9U/wsHsXPbFmfK2T850/NR+aP4gcAAGBLFD8yXxQ/0ncUP7tkMBicfzQabUwdZJOOMm73s6kzadomX1pra2vfkvn+eub78cl16CinD6MNtVQUP4tH8XPOMn4fRep+i+IHAABgSxQ/Ml8UP9J3FD+7ZHT2PSieNnGATTrOcDj8nUOHDl2ybfKltLm5ed7xeHz/zPft0/PvIJ/Lsp/ehlo6ip/Fo/g5Zxm/6+Lni8n7k3fto2wcPXr04m2TAgAAcI4UPzJfFD/SdxQ/u6DOQmkHgj+YzDrAKN3ktckd2mZfOtkPzl2XYMscXzwx567y5eR16+vrV2vDLZ39VPxkTj+aub17eq6LRvFzzjJ+Fet1qcNZc9tO3p396qZt8QAAADBB8SPzRfEjfUfxswsGg8HFRqPRr04dVJTuc8Z4PF6rs2rapl8qVcpkjn+afH5izl3lg8Ph8AfaUEtpn53xc7/Mqy4/OHPO243i55xl/McnZ07MZ9G8L1naIhkAAIDdpPiR+aL4kb6j+NkF4/H45n0c8JaZqd/6v3bb9EtjY2PjwpnXqcnH2jy7zGeyf/1yG2pp7afiJ/MaTM+ziyh+zln2g4dmDp29v6q4S36+LR4AAAAmKH5kvih+pO8ofnZYnX0yHA7vMxqNPjF9YFF6yVvG4/HdsukPnP0K7L7sA+fLPnDPzO0/p+baSbK+zzp48OCF2nBLS/GzeBQ/5yzjV7H6oYn5LJpPJo9oiwcAAIAJih+ZL4of6TuKnx22vr7+HaPR6IkTBxOl//zakSNHLtpegl118sknf9NwOPzuzOnZU3PsKu+sfawNt9T6Kn6yzD9eW1u7Uhtm19V6Zl6/MD3PLqL4OWcZ/x7JWyfms2jqkozPrPdwGwIAAAAaxY/MF8WP9B3Fz846MBqNbp+8vR1IlJ3JsweDwY3ba7CrxuPxlTOf30v6uK/P6Vn+j7ahll6d/ZY5/+PUOnSRfxwOhzdow+y6zOeKmc8fTs2xkyh+zlnW6XaZw+un5rRo3rixsXG5NgQAAAA0ih+ZL4of6TuKnx1UB0GHMeNgYhf5bPKupEqlVUwddD4jmbVui+Zj2ez329zcPHd7KXZFnXWUudQlv/q4r88Xk8et0tkI9Xpkzr8xsQ5d5V+SW7Zhdt14PL5u9r+/nZpjJ1H8nLOMf8Vs+5dMzWmhZDv9T5b5Q20IAAAAaBQ/Ml8UP9J3FD87aDweX2c0Gv3T9MHEjvKK5Kcyxo+taH4i8/+HifXpOo/Zzd/Ur8t9tYPrr52aV1d50dGjRy/ehlsJPRY/b8v+dJc2zK7LfG6f1/7fp+bYSRQ/x5f94G8yjy9NzWuRnJZl/npbPAAAADSKH5kvih/pO4qfHXLKKaecZzwe3y35yIyDiQsny31wcsE23MrZ3Nw8V9bjTskXJterw7wh2+f72nA7qtZtOBzeIHP4u6k5dZV3Zt1uVuO0IVdCj8XPacl92zC7qq3jT7U5zZrrQsnyFT/HkTk8KvnExJwWTZ1Z94K1tbVvaUMAAABAKH5kvih+pO8ofnbI+vr6ZYbD4cOnDiJ2lU8mN1n1m47XQezxePzmqXXrKnVPncFulGODweDbMvYj2xxmzW2R1EHtg9l2523DrYwqRfJ6HJlan67yC9nu529D7Zr2vn/0jPl1EsXP8WW97pd51CUwZ81vu6mi9c5tCAAAAAjFj8wXxY/0HcXPDhkMBjce9XeZr+fthRuOV3mRdXnE1Lp1lvF4/PQ8XrsNtyPqzICMeTD5wLF5dJg6O+oP8tpfuA23UqqozPzvMbE+nSWv9V8Mh8Ort6F2TeZy6+TfJufWZRQ/x7e+vn7DzKPrz90zsn/9/jIUiwAAACwLxY/MF8WP9B3Fzw6oA4TD4fA+o37O+DjrMm8HDx68UBtuZW2efbm3OlB+5uT6dZj3JnetcdqQvWpF1h2S17Xxu87z1tfXr7ZT69O1mnfeG//fjPXqIv+Z3KENtSuyfnUG24Mzj772Z8XPCVQpmtfgWZlLl/f5qbwxy715GwYAAIB9T/Ej80XxI31H8bMD1tbWrjQajf506sBhVzl9OBx+96pf5u2YOlCc9XnZjPXsKr+aXKIN15sqNfK6XytjPXVi7C7zzuT2de+oNuQqOtDeG7PWb6FkH/r0eDxe66oY2Y7BYPBdmcszpufWZRQ/J5Z5/GbS9T2WPpFt9tjd3L8AAABYJoofmS+KH+k7ip+eVQGwvr5+q9Fo9J6pA4edZDgc/v1gMPi2NtzKO3To0DdnvcrM9V004/H4JXm8SRuuN3Vvl4zzsORTx8buMKdlPdZX9RJvk2odsj4fnVq/rvKXVb61oXbUkSNHLprX6MHJR2bMq7Mofk4s87hT8taJeXWVt+T1da8fAAAAQvEj80XxI31H8dOzOgA8Go0GUwcMO8twOLzfXvqt8yrKxuPxdbNuZ0yva0c5Pbl3FUxtyM61y0vdP+PUpeVmzWHR/FFe9ytkqANnj7i6sp0umPV58dT6dZJso/9JfjL71PnacDuizr5rl7B7xfScuo7i58TyWlwsc3le0vXl3j6T7fa3dbnFNtTKqX01+9C5238CAACwbYofmS+KH+k7ip+eDYfDqyfPnXHQsIu8J8u+QYZZ+QJg0tra2rdk3Z45ta6dZTwe/+6RI0e+vQ3Xqbr0WpZ/m+Q1s8buIC8fDAY33SsHa6uUyTo9bmodu8xfZ3t9ZxtuR2S8q+R9+YcZ+wtTc+k8ip+tyfr9cubT+ZlleZ/XGV2PymfWldpQK+Pw4cOXznb5geyvN25/BQAAwLYpfmS+KH6k7yh+etRKgDuPzj7LZOaBw0WSZf/ZxsbG5dpwe0adjTMcDn9y1jp3lLfU5ffacJ3Z3Nw812AwuGpel7+YMWYXeXe2yz27Oti/DOo9kvW699R6dpmPJRtHjx69eBuyV2tra5fN6//QNu6s+XQaxc/W5DWpswj/a2p+XeWD2X4PX5XyJ59R58/2uFnmXfc+el7+/MD2TwAAAGyb4kfmi+JH+o7ip0fj8fhSo9HoEe3gYOfJ8u+/l0qACQeyftdMPjy5vh3mi9l2P9/1PXKqXMiyH5L0UfR9PnnIThUYO+jYa/25tp595E1VJPZdQlTpk3HqzJK+LvH3DVH8bE0rGJ+YnDkxvy7zweSR2Y5Xb0Munewr580cr52U5yenJe/LnB/UvgQAAIBtU/zIfFH8SN9R/PSoLjE1Go3emMw6ULho3pncKMPsqcu8HXPqqad+a9bvTyfWt+s8Y2Nj4xptuIXVAfjhcHjPLPfdU+N0lae1g8p77vVeO/vSfm+YWt+uU/fbuUfXZd8xddmsLL9Kv/e18XYkip+tyzreLnP676k5dpkqqp84Ho9vU0VTG3bXtdKrytW611xdQvP9ybE5K34AAAA6ofiR+aL4kb6j+OlJXU5nNBrdK+nrPh9P2tjYuHwbbs+p305vB6NnrXsX+XBeozvWzc3bkNuWuZ47c/3u5GUzxukirxqPx99b26QNuadUeZF1fNTUOnedLyavzWv0c3m8RBt6YfWaZHk3Sh6f7GjpU6lt16aykPZe29PFT9vP/jTr+umpeXaZTyX/kmwk125D74r6HpTcOOs7zFz+KZksfI5F8QMAANAJxY/MF8WP9B3FT08Gg8G3jUajJ08dZOsse/gyb8ccWF9f/46s55tnrX8XybI387hwCdBukv6ULKuPkq8u8fawOoCbx/qt/ZXJkSNHLpp99FxtM52jfM2581p8X54za/27Tp3x8YS6x1PGPV+bwtyqMMxrcpUsq7woOSOZNV6v6eozIPvvni9+Svaz22Reb02+MjHPrvPlpO778/d5PJhcc6fOAKr9MuNeIfmRjFtl5IuTWYXPsSh+AAAAOqH4kfmi+JG+o/jpQR3sbgfq+7pHzduz/JtmqD15mbdjso4Xy7o+bmrdu8y/DYfD67XhtuXgwYMXynLKJ5NZYyyas85USeqeHCuVvH53PHTo0De3TXVcGxsbl8tz+rr5/nTqrIxX5LV/bB7vUQfKt3jm14Eqs/KcW+Y5v5jH5yT/m8waY0ei+JlP9sk6E/ORSV/v18l8Idv1f/JY74ffGI/Hd04u1abSmVZCXjVj/HhS61Zn99QlRj+TzJrXZBQ/AAAAnVD8yHxR/EjfUfz0oA52DmPGQbau8sQjR458extuz6rfkm9ngnx2av27yplZ/o9t98yPPO+8dTA3y3nP1HIlyVvgAVstJrIdL5gcnbWcHlMF0Jsyz+fm8Q8y/kPz+OP575Oncs/825H8W12O7h+SVyV9lbpzRfEzvzqTMHOrMvVLE3PtO6clb8h+9Kxs68fm8afzeNu6z9i8r+Ha2tq18vzbtP2y9tm/Tl6Y1JlM8555pvgBAADohOJH5oviR/qO4qcHVcqMzr7Pw6wDbYvmc3XAb6tnUqy6rO8Vk5dPrH+nGY/Hv7+deyVtbm6eK8+vS5q9YnJ58n/Jfrrl4qe2Z77+ennex6eXs0OpcrHGflvylqnUAfUPJrtyObfjRfGzPfUZmvf+R2bMeSdSheO7k9dlHi/N4z/lsS4L95jM6ddnJf9WpeMz2tf9a/K6pPbLRd8vih8AAIBOKH5kvih+pO8ofjpWZ6mMRqPbJ2dOHFzrMnWD+hu04fa8U0899Vvbgc9Z26KLvGcwGNy4DbdlGxsbF85z/zKpS7HNWu6+T/bTLRc/pV7rPO/3ppcj5xzFz/a0SzQ+Juv96ak572aqWKwiZ1bq0nR93JdI8QMAANAJxY/MF8WP9B3FT8eOHj168VG/B68fNxgMvq0Nt+dtbm6eu27En/Wug5+ztseiqcs9Hawipw15QpnTees5SV/l3p7IvMVP3atkPB7fLM997/SyZHYUP9uXdb5C5viPyRcm5rzfovgBAADohOJH5oviR/qO4qdja2trVxr1d+C6Lkd1jzqrqA23L2Sdrzgej/95Yjt0nWcOBoOrtOGOa3Nz81zr6+u3yHPeN7UMmcq8xU85cuTIRfPch0wva8XzgeSV7XHWv287ip/FZL1vkPx75vrlqbnvlyh+AAAAOqH4kfmi+JG+o/jp0GAwOP94PP7pUX83DX/1di5LturaZdUOTW2LLnNGtusdt1Ko1b2V2oHiWcuRiWQ7zV38VLG2trZ2rTz3ubOWuWrJetSlxP4oj8M8vnPy37qI4mcx7Syz22SuH5qa+36J4gcAAKATih+ZL4of6TuKnw6NRqNLDIfDv506sNZlHrexsXH5Nty+UWXAeDy+edb/Y1Pbo7Nk+b9el+lrQ56jKvfy9X0Ve3sqeS/MXfyUVq79YJax6pd8q0uI/WPWpc4quWf+rPhZQtmGdenGuya9fb4scRQ/AAAAnVD8yHxR/EjfUfx0pH5zfDQa3ST51MRBtS7z2fF4/KObm5vnbkPuK1V4Zf3/bMZ26SpvrTNN2nDnqBU/s54vUxlus/gp7ZJvpySfmVzmCuWLybPrDL06kyzb4uT8t+JnSWU7nq9tg09MrcNej+IHAACgE4ofmS+KH+k7ip+O1AHY8Xh8ZMaBta7yysFgcNM23L5ThctwOLzPjO3SVb6Y5f9InW3ShpxJ8bP1ZHtuu/iJA3ktLpn31HqWtWrlT5U+z0lulPU/q6jNtlD8LLl672c73CDzfuvUeuzlKH4AAAA6ofiR+aL4kb6j+OlIHaQe9XjAcDgcPnx9ff0ybbj96EAVX9kO/zNr+3SUv9rY2LhcG28mxc/Wk9dqkeKnHBiPx5fKsjaSVSl/qvR5XhUIx0qfkv9W/KyAbM+6rOR1MvcXTq3LXo3iBwAAoBOKH5kvih/pO4qfDkzcILyve798PMu/Wx2UbEPuS2tra5fNtnjc1LbpMh870eXeFD9bTwfFTzmr/EkenGUu+z1/Ts88f7cuS1ifCW3+Z1H8rI76nK2SPfP/jaSvS3cuS2qfvG9bdQAAALZN8SPzRfEjfUfx04HxeHzB0Wj05xMH07rOC5IbteH2rXavlB+Z2jZd5it5Ldc3NjYu3Ib8Boqfraej4qccOHjw4IXy2twly/2P6XGWIVnXOhPtZ+qzoOZ79rT/j+Jn9dQ+l/f7/5f1eO3Ueu2FfCGpM9NuV5e4a6sMAADAtil+ZL4ofqTvKH46MBgMLjYajU6bOKjWdR5SY7Th9rX19fXrZ3u8emr7dJnnHe9yb4qfrafD4ucsWda58/pfbTwe/1aW//Hp8XYpdUbIn2Ze31HFZJvqN1D8rKZ2NmddbvAXkg9OrNtKJq/zp/P4/OQeR48evfj0mWkAAABsl+JH5oviR/qO4mdB7SyUn508uNZx6gD33TPUN5xFsB9VKZPt/eipbdRlvpzl37ZKhjbk11H8bD3Zjp0WP82BWma9RsnfZ5zPTo+7E8nYdQD9r8fj8c1b4XPc92e+XvGzwrKdz1uXgcw6/UFy5sQ6rkrq+8iTs79+X61Lsq8vGwoAANA9xY/MF8WP9B3Fz4LqwOt4PP7nqYNsXeZ5g8Hgxm04og5eZrv0efD1N87pgLXiZ+sZ9lP8fE2Wfb6Mc6OkDsZ/LKl7bH0lmTmfBVPLreV/Muv12OwHN80UtlzGKn72jLPuOZV1qzOA3pb0uc9tN19OztpXk2dnvj9R9yyquZ+9CgAAAHTvrOLnEx886cmnf1rkhHnK6S886S9Ou1Xbe7bsq8896a5ffd5Jb8rjp0VOkNOzr/x523WY34HRaHTt4XD46R7zi6eeeuq3tvGI8Xh8nTqgOWNbdZIs+7/rBv1tuK9Txc+s58jM3Ke2V9t0vaqD8RmvypUn57Hut1NnAn0++WJSB8HrYPisg+TTqYP49bX1vHp+Led/k1ruydstMvL8uydvatuls3RV/GT73Tnz+69ZY2w3Wd6L92Dx8zV1D6Cs452Sur/be5PPJXXvnK3ua12k9u2z9tW2zd+Rxzoj8q6t7AEAAAAAgNVWZwLVZbmGw+H9xmffD+hpySuTDySnt9TZEHV/njOST7S/q7wpeXbym8nBKhnbYuEcHTly5KLZ326X/WUz+80Lkw8lZ7Qy5lghVAXNvKXQsWKnnl8l5GeS2m9r/63Lt/1D8msZ5+SNjY1rtOkAAAAAAMD+UmcI1SUUh8Ph9Q4dOvTN7a+hExsbGxcejUbXzn72o3n8peSPsq/VPalen3x4jjynPa/OKjo1f35QHm+Zxyu0oQAAAAAAAAAAAAAAAAAAAAAAAAAAAAAAAAAAAAAAAAAAAAAAAAAAAAAAAAAAAAAAAAAAAAAAAAAAAAAAAAAAAAAAAAAAAAAAAAAAAID/vz04IAAAAEAQ5P/VDQkAAAAAAAAAAAAAAAAAAAAAAAAAAAAAAAAAAAAAAAAAAAAAAAAAAAAAAAAAAAAAAAAAAAAAAAAAAAAAAAAAAAAAAAAAAAAAAAAAAAAAAAAAAAAAAAAAAAAAAAAAAAAAAAAAAAAAAAAAAAAAAAAAAAAAAAAAAAAAAAAAAAAAAAAAAAAAAAAAAAAAAAAAAAAAAAAAAAAAAAAAAAAAAAAAAAAAAAAAAAAAAAAAAAAAAAAAAAAAAAAAAAAAAAAAAAAAAAAAAAAAAAAAAAAAAAAAAAAAAAAAAAAAAAAAAAAAAAAAAAAAAAAAAAAAAAAAAAAAAAAAAAAAAAAAAAAAAAAAAAAAAAAAAAAAAAAAAAAAAAAAAAAAAAAAAAAAAAAAAAAAAAAAAAAAAAAAAAAAAAAAAAAAAAAAAAAAAAAAAAAAAAAAAAAAAAAAAAAAAAAAAAAAAAAAAAAAAAAAAAAAAAAAAAAAAAAAAAAAAAAAAAAAAAAAAAAAAAAAAAAAAAAAAAAAAAAAAAAAAAAAAAAAAAAAAAAAAAAAAAAAAAAAAAAAAAAAAAAAAAAAAAAAAAAAAAAAAAAAAAAAAAAAAAAAAAAAAAAAAAAAAAAAAAAAAAAAAAAAAAAAAAAAAAAAAAAAAAAAAAAAAAAAAAAAAAAAAAAAAAAAAAAAAAAAAAAAAAAAAAAAAAAAAAAAAAAAAAAAAAAAAAAAAAAAAAAAAAAAAAAAAAAAAAAAAAAAAAAAAAAAAAAAAAAAAAAAAAAAAAAAAAAAAAAAAAAAAAAAAAAAAAAAAAAAAAAAAAAAAAAAAAAAAAAAAAAAAAAAAAAAAAAAAAAAAAAAAAAAAAAAAAAAAAAAAAAAAAAAAAAAAAAAAAAAAAAAAAAAAAAAAAAAAAAAAAAAAAAAAAAAAAAAAAAAAAAAAAAAAAAAAAAAAAAAAAAAAAAAAAAAAAAAAAAAAAAAAAAAAAAAAAAAAAAAAAAAAAAAAAAAAAAAAAAAAAAAAAAAAAAAAAAAAAAAAAAAAAAAAAAAAAAAAAAAAAAAAAAAAAAAAAAAAAAAAAAAAAAAAAAAAAAAAAAAAAAAAAAAAAAAAAAAAAAAAAAAAAAAAAAAAAAAAAAAAAAAAAAAAAAAAAAAAAAAAAAAAAAAAAAAAAAAAAAAAAAAAAAAAAAAAAAAAAAAAAAAAAAAAAAAAAAAAAAAAAAAAAAAAAAAAAAAAAAAAAAAAAAAAAAAAAAAAAAAAAAAAAAAAAAAAAAAAAAAAAAAAAAAAAAAAAAAAAAAAAAAAAAAAAAAAAAAAAAAAAAAAAAAAAAAAAAAAAAAAAAAAAAAAAAAAAAAAAAAAAAAAAAAAAAAAAAAAAAAAAAAAAAAAAAAAAAAAAAAAAAAAAAAAAAAAAAAAAAAAAAAAAAAAAAAAAAAAAAAAAAAAAAAAAAAAAAAAAAAAAAAAAAAAAAAAAAAAAAAAAAAAAAAAAAAAAAAAAAAAAAAAAAAAAAAAAAAAAAAAAAAAAAAAAAAAAAAAAAAAAAAAAAAAAAAAAAAAAAAAAAAAAAAAAAAAAAAAAAAAAAAAAAAAAAAAAAAAAAAAAAAAAAAAAAAAAAAAAAAAAAAAAAAAAAAAAAAAAAAAAAAAAAAAAAAAAAAAAAAAAAAAAAAAAAAAAAAAAAAAAAAAAAAAAAAAAAAAAAAAAAAAAAAAAAAAAAAAAAAAAAAAAAAAAAAAAAAAAAAAAAAAAAAAAAAAAAAAAAAAAAAAAAAAAAAAAAAAAAAAAAAAAAAAAAAAAAAAAAAAAAAAAAAAAAAAAAAAAAAAAAAAAAAAAAAAAAAAAAAAAAAAAAAAAAAAAAAAAAAAAAAAAAAAAAAAAAAAAAAAAAAAAAAAAAAAAAAAAAAAAAAAAAAAAAAAAAAAAAAAAAAAAAAAAAAAAAAAAAAAAAAAAAAAAAAAAAAAAAAAAAAAAAAAAAAAAAAAAAAAAAAAAAAAAAAAAAAAAAAAAAAAAAAAAAAAAAAAAAAAAAAAAAAAAAAAAAAAAAAAAAAAAAAAAAAAAAAAAAAAAAAAAAAAAAAAAAAAAAAAAAAAAAAAAAAAAAAAAAAAAAAAAAAAAAAAAAAAAAAAAAAAAAAAAAAAAAAAAAAAAAAAAAAAAAAAAAAAAAAAAAAAAAAAAAAAAAAAAAAAAAAAAAAAAAAAAAAAAAAAAAAAAAAAAAAAAAAAAAAAAAAAAAAAAAAAAAAAAAAAAAAAAAAAAAAAAAAAAAAAAAAAAAAAAAAAAAAAAAAAAAAAAAAAAAAAAAAAAAAAAAAAAAAAAAAAAAAAAAAAAAAAAAAAAAAAAAAAAAAAAAAAAAAAAAAAAAAAAAAAAAAAAAAAAAAAAAAAAAAAAAAAAAAAAAAAAAAAAAAAAAAAAAAAAAAAADgQQ18YlPOOtRmewAAAABJRU5ErkJggg==;strokeColor=none;strokeWidth=2;points=[];labelBackgroundColor=none;rounded=0;html=1;whiteSpace=wrap;clipPath=inset(18.35% 11.33% 18.35% 11.33%);" vertex="1" parent="1">
            <mxGeometry x="-140" y="560" width="162.4" height="70" as="geometry" />
          </mxCell>
        </UserObject>
        <mxCell id="PwxTCh5Mb6KXJ-CmKBn5-11" value="Usuario con&amp;nbsp;&lt;div&gt;Azure CLI&lt;/div&gt;&lt;div&gt;ejecuta&lt;/div&gt;&lt;div&gt;az ssh vm&amp;nbsp;&lt;/div&gt;" style="image;aspect=fixed;html=1;points=[];align=center;fontSize=12;image=img/lib/azure2/identity/Users.svg;labelBackgroundColor=none;fontColor=#000000;" vertex="1" parent="1">
          <mxGeometry x="-50" y="377" width="64" height="70" as="geometry" />
        </mxCell>
        <mxCell id="PwxTCh5Mb6KXJ-CmKBn5-12" value="Azure CLI&lt;div&gt;verifica sesión&lt;/div&gt;&lt;div&gt;con &#39;az login&#39;&lt;/div&gt;" style="image;aspect=fixed;html=1;points=[];align=center;fontSize=12;image=img/lib/azure2/other/Azure_A.svg;fontColor=#000000;labelBackgroundColor=none;" vertex="1" parent="1">
          <mxGeometry x="80" y="371.82000000000005" width="68" height="64.12" as="geometry" />
        </mxCell>
        <mxCell id="PwxTCh5Mb6KXJ-CmKBn5-19" value="" style="edgeStyle=orthogonalEdgeStyle;rounded=0;orthogonalLoop=1;jettySize=auto;html=1;" edge="1" parent="1" source="PwxTCh5Mb6KXJ-CmKBn5-14" target="PwxTCh5Mb6KXJ-CmKBn5-12">
          <mxGeometry relative="1" as="geometry" />
        </mxCell>
        <mxCell id="PwxTCh5Mb6KXJ-CmKBn5-14" value="Microsoft Entra ID&lt;div&gt;autentica&lt;/div&gt;&lt;div&gt;al usuario&lt;/div&gt;" style="image;aspect=fixed;html=1;points=[];align=center;fontSize=12;image=img/lib/azure2/other/Entra_Identity.svg;fontColor=#000000;labelBackgroundColor=none;" vertex="1" parent="1">
          <mxGeometry x="220" y="371.78000000000003" width="68" height="60.440000000000005" as="geometry" />
        </mxCell>
        <mxCell id="PwxTCh5Mb6KXJ-CmKBn5-15" style="edgeStyle=elbowEdgeStyle;rounded=0;orthogonalLoop=1;jettySize=auto;html=1;entryX=-0.06;entryY=0.37;entryDx=0;entryDy=0;entryPerimeter=0;elbow=vertical;startArrow=none;startFill=0;strokeColor=#006EAF;jumpSize=8;arcSize=20;strokeWidth=2;fillColor=#1ba1e2;" edge="1" parent="1">
          <mxGeometry relative="1" as="geometry">
            <mxPoint x="10" y="404.38000000000005" as="sourcePoint" />
            <mxPoint x="79" y="403.38000000000005" as="targetPoint" />
            <Array as="points">
              <mxPoint x="50" y="403.38000000000005" />
            </Array>
          </mxGeometry>
        </mxCell>
        <mxCell id="PwxTCh5Mb6KXJ-CmKBn5-16" style="edgeStyle=elbowEdgeStyle;rounded=0;orthogonalLoop=1;jettySize=auto;html=1;entryX=-0.06;entryY=0.37;entryDx=0;entryDy=0;entryPerimeter=0;elbow=vertical;startArrow=none;startFill=0;strokeColor=#006EAF;jumpSize=8;arcSize=20;strokeWidth=2;fillColor=#1ba1e2;" edge="1" parent="1">
          <mxGeometry relative="1" as="geometry">
            <mxPoint x="148" y="404.38" as="sourcePoint" />
            <mxPoint x="217" y="403.38" as="targetPoint" />
            <Array as="points">
              <mxPoint x="188" y="403.38" />
            </Array>
          </mxGeometry>
        </mxCell>
        <mxCell id="PwxTCh5Mb6KXJ-CmKBn5-17" style="edgeStyle=elbowEdgeStyle;rounded=0;orthogonalLoop=1;jettySize=auto;html=1;entryX=-0.06;entryY=0.37;entryDx=0;entryDy=0;entryPerimeter=0;elbow=vertical;startArrow=none;startFill=0;strokeColor=#006EAF;jumpSize=8;arcSize=20;strokeWidth=2;fillColor=#1ba1e2;" edge="1" parent="1">
          <mxGeometry relative="1" as="geometry">
            <mxPoint x="290" y="404.38000000000005" as="sourcePoint" />
            <mxPoint x="359" y="403.38000000000005" as="targetPoint" />
            <Array as="points">
              <mxPoint x="330" y="403.38000000000005" />
            </Array>
          </mxGeometry>
        </mxCell>
        <mxCell id="PwxTCh5Mb6KXJ-CmKBn5-18" style="edgeStyle=elbowEdgeStyle;rounded=0;orthogonalLoop=1;jettySize=auto;html=1;entryX=-0.06;entryY=0.37;entryDx=0;entryDy=0;entryPerimeter=0;elbow=vertical;startArrow=none;startFill=0;strokeColor=#006EAF;jumpSize=8;arcSize=20;strokeWidth=2;fillColor=#1ba1e2;" edge="1" parent="1">
          <mxGeometry relative="1" as="geometry">
            <mxPoint x="420" y="404.38000000000005" as="sourcePoint" />
            <mxPoint x="489" y="403.38000000000005" as="targetPoint" />
            <Array as="points">
              <mxPoint x="460" y="403.38000000000005" />
            </Array>
          </mxGeometry>
        </mxCell>
        <mxCell id="PwxTCh5Mb6KXJ-CmKBn5-20" value="" style="image;aspect=fixed;html=1;points=[];align=center;fontSize=12;image=img/lib/azure2/security/Security_Center.svg;" vertex="1" parent="1">
          <mxGeometry x="490" y="402.22" width="24.71" height="30" as="geometry" />
        </mxCell>
      </root>
    </mxGraphModel>
  </diagram>
</mxfile>
